<?xml version="1.0" encoding="utf-8"?>
<svg xmlns="http://www.w3.org/2000/svg" viewBox="99.241 180.886 224.08 106.68">
  <g transform="matrix(1.135667, 0, 0, 1.192334, 90.426605, -59.134525)" style="">
    <path stroke-width=".062536" d="m142.06 290.74c-0.0889-0.0291-0.33625-0.0856-0.54964-0.12569-0.65636-0.12325-1.9195-0.49578-2.0826-0.61418-0.0429-0.0312-0.10843-0.0391-0.14563-0.0176s-0.30763-0.0555-0.60097-0.17112c-0.29334-0.11561-0.60609-0.22852-0.695-0.25092-0.0889-0.0224-0.37757-0.14036-0.64145-0.26214-0.8909-0.41118-1.6514-1.2944-1.6308-1.894 0.004-0.12159-0.0344-0.33251-0.0858-0.46871-0.0514-0.13621-0.0806-0.24765-0.0649-0.24765s-0.0591-0.16115-0.16609-0.3581c-0.10701-0.19696-0.23282-0.47697-0.27956-0.62224-0.0868-0.26969-0.0913-0.96117-0.008-1.2876 0.08-0.31525 0.0137-0.843-0.1336-1.063-0.0317-0.0473-0.05-0.12952-0.0407-0.18264 0.009-0.0531-0.0248-0.12896-0.0758-0.16854-0.051-0.0396-0.0777-0.12553-0.0594-0.19101 0.0183-0.0655 0.003-0.15294-0.0332-0.19433-0.0366-0.0414-0.0858-0.18414-0.10928-0.3172-0.0235-0.13305-0.0667-0.29634-0.096-0.36287-0.0575-0.1306-0.28781-1.0629-0.3564-1.4428-0.0232-0.12828-0.0734-0.30519-0.1117-0.39311-0.0383-0.0879-0.0754-0.20068-0.0825-0.25057-0.0394-0.27567-0.12455-0.69075-0.23016-1.1217-0.17826-0.72733-0.19425-0.8051-0.26672-1.2974-0.0367-0.24948-0.095-0.50387-0.12944-0.56532-0.0345-0.0615-0.0471-0.12626-0.0281-0.14403 0.019-0.0178 0.009-0.0777-0.0232-0.13319-0.0318-0.0555-0.078-0.39891-0.10283-0.76315-0.0248-0.36425-0.0579-0.68295-0.0735-0.70823-0.0156-0.0253-0.0552-0.36548-0.0879-0.75599-0.0327-0.3905-0.0754-0.81887-0.0949-0.95193-0.0195-0.13305-0.0774-0.55489-0.12858-0.93742-0.0512-0.38252-0.12612-0.81797-0.16645-0.96766-0.0403-0.14968-0.10308-0.38782-0.13945-0.52919-0.0395-0.15362-0.10331-0.25703-0.15854-0.25703-0.0508 0-0.0734-0.0288-0.0501-0.064s-0.0529-0.26195-0.16931-0.50386c-0.14928-0.31027-0.27492-0.47864-0.42648-0.57156-0.11974-0.0734-0.21484-0.18308-0.21484-0.24774 0-0.12459-0.24758-0.33607-0.47113-0.40243-0.20718-0.0615-0.27057-0.15214-0.2922-0.41786-0.0165-0.20284-0.0739-0.28913-0.35565-0.53424-0.18477-0.16078-0.40337-0.35129-0.48576-0.42335-0.0824-0.0721-0.17798-0.17866-0.21243-0.23687-0.052-0.0878-0.0348-0.10712 0.1013-0.11339 0.24369-0.0112 0.46661-0.0333 1.0046-0.0993 0.26673-0.0327 0.70659-0.0475 0.97745-0.0328 0.46927 0.0254 0.4943 0.0202 0.53099-0.111l0.0385-0.13769 0.14798 0.12831c0.11659 0.10109 0.26376 0.13636 0.69363 0.16622 0.3001 0.0209 0.66384 0.0626 0.8083 0.0927 0.14446 0.0302 0.46634 0.0843 0.7153 0.12024 0.44891 0.0649 0.91094 0.1867 1.303 0.3436 0.11208 0.0448 0.24485 0.0815 0.29507 0.0815 0.0502 0 0.3482 0.12261 0.6622 0.27245 0.42944 0.20495 0.59194 0.25611 0.65589 0.20647 0.0987-0.0766 0.12361-0.0646 0.6445 0.31171 0.57469 0.41515 0.75118 0.48491 1.2439 0.49166 0.38295 0.005 1.1589-0.14126 1.3385-0.25271 0.0658-0.0408 0.15929-0.0679 1.1316-0.32789 1.1788-0.31518 1.7974-0.45751 2.2632-0.52066 0.26674-0.0362 0.76142-0.12956 1.0993-0.20756 0.33786-0.078 0.65795-0.14304 0.7113-0.14454 0.18103-0.005 0.41968-0.0543 0.60928-0.12564 0.10395-0.0391 0.22491-0.0582 0.26882-0.0424 0.0439 0.0158 0.26441-0.0134 0.48999-0.0648 0.22559-0.0514 0.5702-0.10055 0.76581-0.1092 0.61756-0.0273 1.5623-0.14471 2.1986-0.2732 1.7711-0.35767 2.1905-0.43646 2.4494-0.46018 0.15571-0.0143 0.30896-0.0409 0.34055-0.0592 0.0316-0.0183 0.13698-0.0453 0.2342-0.06 0.0972-0.0147 0.395-0.0653 0.66174-0.11229 0.26673-0.047 0.70321-0.10274 0.96995-0.12386 1.0527-0.0834 1.2098-0.0992 1.5833-0.16 0.21284-0.0346 0.53293-0.0717 0.7113-0.0823 0.32984-0.0196 1.5497-0.14605 1.8439-0.19109 0.0889-0.0136 0.48174-0.0506 0.87296-0.0821 0.39121-0.0316 0.98773-0.0972 1.3256-0.14596 0.33787-0.0487 0.86165-0.11977 1.164-0.15789 0.3023-0.0381 0.62239-0.0855 0.7113-0.10521 0.27841-0.0618 0.34618-0.0717 0.7113-0.10341 1.1999-0.10424 1.7074-0.16668 2.1666-0.2666 0.28429-0.0619 0.6517-0.11595 0.81646-0.12021 0.16476-0.004 0.45245-0.0349 0.6393-0.068s0.44207-0.0603 0.56716-0.0603c0.18195 0 0.27458-0.0478 0.46323-0.2389 0.16513-0.16729 0.32004-0.25659 0.51679-0.29794 0.15454-0.0325 0.29857-0.0815 0.32007-0.10885 0.0753-0.0959 0.32574-0.19877 0.4102-0.16846 0.10447 0.0375 0.30831-0.0943 0.33368-0.21564 0.0722-0.34524 0.11654-0.39889 0.39333-0.47533 0.15659-0.0432 0.43572-0.0649 0.62673-0.0486 0.3857 0.0329 1.4927 0.21869 1.5342 0.25752 0.0148 0.0138 0.0671-0.006 0.11637-0.0444 0.0675-0.0524 0.10796-0.0522 0.16437 0.00061 0.0412 0.0385 0.20725 0.07 0.36907 0.07 0.16183 0.00001 0.45122 0.0558 0.64311 0.12405 0.19189 0.0682 0.38897 0.10964 0.43795 0.0921 0.049-0.0176 0.1475 0.0227 0.21894 0.0895 0.0714 0.0668 0.21626 0.13764 0.32185 0.15739 0.10559 0.0197 0.19197 0.0585 0.19197 0.0861s0.10912 0.0665 0.24249 0.0864 0.28614 0.0616 0.33948 0.0925c0.0533 0.031 0.19358 0.097 0.31161 0.1466 0.27288 0.11479 1.4558 0.84749 1.675 1.0376 0.0914 0.0792 0.19825 0.14407 0.23752 0.14414 0.0393 0 0.17323 0.0839 0.29771 0.18626s0.34272 0.25874 0.48498 0.3475c0.14226 0.0888 0.29097 0.18866 0.33047 0.22198 0.39532 0.33345 1.52 1.0954 1.6903 1.1451 0.08 0.0234 0.14549 0.063 0.14549 0.0881s0.12392 0.10357 0.27538 0.17431c0.15145 0.0708 0.36242 0.20773 0.46881 0.30439 0.10639 0.0967 0.30255 0.21236 0.43592 0.25711 0.13337 0.0448 0.24249 0.0999 0.24249 0.12259 0 0.0457 0.57362 0.30588 0.86626 0.39287 0.10301 0.0306 0.21941 0.1101 0.25866 0.17663 0.0881 0.1494 0.17827 0.21308 0.2461 0.17388 0.0284-0.0164 0.0516 0.0208 0.0516 0.0828 0 0.0619 0.084 0.22003 0.18673 0.35132 0.10396 0.1329 0.20015 0.34595 0.21701 0.48063 0.0166 0.13305 0.0927 0.3448 0.16892 0.47054 0.0763 0.12575 0.13864 0.29425 0.13864 0.37443 0 0.0802 0.0273 0.16154 0.0606 0.18079 0.0333 0.0192 0.0639 0.0821 0.0681 0.13964 0.004 0.0576 0.0231 0.30608 0.0421 0.55227 0.0235 0.30385 0.008 0.49394-0.0479 0.59182-0.064 0.11184-0.0658 0.18783-0.008 0.3386 0.0745 0.19476 0.0119 0.65147-0.10916 0.79681-0.0288 0.0346-0.0699 0.13177-0.0913 0.21599-0.0256 0.1008-0.16212 0.22481-0.39937 0.36287-0.19824 0.11536-0.45186 0.28459-0.5636 0.37606-0.11174 0.0915-0.23104 0.16632-0.26511 0.16632-0.0341 0-0.18583 0.10679-0.33724 0.23732-0.1514 0.13053-0.38152 0.26476-0.51138 0.2983-0.12986 0.0335-0.36158 0.12975-0.51494 0.21381-0.23294 0.12767-0.29284 0.20052-0.36392 0.44256-0.0468 0.15936-0.12138 0.34417-0.16574 0.41069-0.0444 0.0665-0.0942 0.20261-0.11084 0.3024-0.0166 0.0998-0.0905 0.3475-0.16418 0.55046-0.0737 0.20296-0.12094 0.43632-0.10499 0.51858 0.0177 0.0913-0.0162 0.19494-0.0868 0.266-0.18187 0.18282-0.33523 0.51049-0.33523 0.71626 0 0.10346-0.0582 0.33703-0.12932 0.51904-0.0711 0.18201-0.12933 0.37025-0.12933 0.4183 0 0.10615 0.76661 0.79128 0.88538 0.79128 0.0465 0 0.0846 0.028 0.0846 0.0622 0 0.14238 0.73214 0.69557 1.0256 0.77491 0.16501 0.0446 0.34911 0.12212 0.40911 0.17224 0.06 0.0501 0.13783 0.0745 0.17298 0.0542 0.21462-0.12406 0.57628 0.31414 0.4985 0.60402-0.0293 0.10923 0.0338 0.28929 0.22699 0.64763 0.14717 0.27298 0.32473 0.70771 0.39458 0.96605l0.12701 0.46972-0.29577 0.58006c-0.16267 0.31903-0.29576 0.59513-0.29576 0.61356 0 0.11181-0.36573 0.44609-0.68217 0.6235-0.2037 0.1142-0.53631 0.34678-0.73913 0.51682-0.27501 0.23057-0.45509 0.32855-0.70824 0.38535-0.1867 0.0419-0.52807 0.16811-0.75858 0.28049-0.33511 0.16336-0.49271 0.20397-0.78624 0.20256-0.47346-0.002-1.1867-0.18529-1.4783-0.37935-0.19381-0.12897-0.2575-0.14287-0.41668-0.091-0.17161 0.056-0.20936 0.0406-0.43565-0.17751-0.23335-0.22489-0.47257-0.32354-0.84939-0.35028-0.0889-0.006-0.30177-0.043-0.47302-0.0815-0.17124-0.0385-0.34583-0.0491-0.38798-0.0235-0.10265 0.0623-1.2301 0.0597-1.2794-0.003-0.0866-0.1102-0.53883-0.20983-0.69707-0.15356-0.0937 0.0333-0.17413 0.0341-0.19638 0.002-0.0419-0.0605-0.40693-0.13645-0.64262-0.13372-0.0837 0.00096-0.31653-0.0436-0.51731-0.0991-0.20077-0.0555-0.59783-0.10611-0.88235-0.11251-0.28452-0.006-0.7501-0.0461-1.0346-0.0883-0.28452-0.0421-0.65345-0.0818-0.81984-0.088-0.1664-0.006-0.34115-0.0414-0.38835-0.078-0.14842-0.11521-0.41419-0.14812-0.67453-0.0835-0.35668 0.0885-0.75059 0.0888-1.3828 0.001-0.72816-0.10103-1.7459-0.0974-1.7459 0.006 0 0.0288-0.08 0.0517-0.17783 0.0508-0.0978-0.00085-0.35853 0.0688-0.5794 0.15475-0.33698 0.13117-0.48261 0.15343-0.90529 0.1384-0.28702-0.0102-0.65671 0.0186-0.85937 0.067-0.58708 0.14024-3.2574 0.12437-3.7402-0.0222-0.0477-0.0145-0.11464-0.0102-0.14883 0.01-0.0536 0.031-1.0674 0.0483-1.2033 0.0205-0.0267-0.005-0.0776-0.003-0.11316 0.006-0.0356 0.009-0.31685 0.0237-0.62509 0.0326-0.30823 0.009-0.62319 0.0476-0.6999 0.086-0.14286 0.0715-0.51107 0.11774-1.1969 0.1503-0.21339 0.0101-0.38798 0.0248-0.38798 0.0326 0 0.0259-1.1318 0.14783-1.6812 0.18117-0.0356 0.002-0.14779-0.0145-0.24937-0.037-0.12076-0.0268-0.20223-0.0144-0.23534 0.0357-0.0334 0.0506-0.27822 0.0863-0.72059 0.10508-0.94389 0.0401-1.2179 0.0259-1.4318-0.0739-0.10289-0.048-0.35185-0.11455-0.55325-0.14788-0.71365-0.11809-1.1086-0.16636-1.1378-0.13906-0.0163 0.0152-0.24214 0.0334-0.50196 0.0404s-0.53059 0.0414-0.60172 0.0765c-0.16236 0.08-0.81375 0.16295-1.1923 0.15176-0.15784-0.005-0.31788 0.0141-0.35565 0.0417-0.0378 0.0276-0.19597 0.0684-0.35157 0.0906-0.15561 0.0222-0.34475 0.0726-0.42032 0.11183-0.0756 0.0393-0.16171 0.0648-0.19143 0.0568-0.0297-0.008-0.0346 0.0681-0.0109 0.16913 0.0342 0.14561 0.009 0.22218-0.12378 0.36924-0.0918 0.10204-0.16693 0.22427-0.16693 0.27161 0 0.0474-0.0246 0.0861-0.0546 0.0861s-0.13608 0.0655-0.23564 0.1455l-0.18104 0.14548 0.17703 0.41359c0.0974 0.22746 0.18888 0.52685 0.20338 0.66528 0.025 0.23918 0.0102 0.26432-0.2971 0.50499-0.1779 0.1393-0.31252 0.27114-0.29916 0.29296 0.0209 0.0342-0.0136 0.29521-0.11149 0.843-0.0281 0.15733-0.0181 0.14753-0.24565 0.23874-0.0942 0.0378-0.23543 0.053-0.31377 0.0338-0.0848-0.0208-0.16412-0.002-0.19602 0.0462-0.0295 0.0446-0.19379 0.0909-0.3652 0.10293-0.1714 0.012-0.42803 0.0322-0.57029 0.0447-0.14226 0.0126-0.3314-0.00097-0.42031-0.03zm3.5687-11.801c0.065-0.0317 0.12453-0.0301 0.14698 0.004 0.0207 0.0314 0.30623 0.0579 0.63439 0.0589 0.32816 0.00097 0.79201 0.0152 1.0308 0.0316 0.23877 0.0164 0.44784 0.009 0.46461-0.0164 0.0168-0.0254 0.18514-0.0411 0.37417-0.0349 0.30811 0.0101 0.79606-0.0411 1.2005-0.12597 0.08-0.0168 0.20106-0.0421 0.26897-0.0562 0.0679-0.0141 0.25705-0.0444 0.42031-0.0673s0.29684-0.0679 0.29684-0.10005c0-0.033 0.0817-0.0416 0.18783-0.0198 0.10331 0.0212 0.20329 0.0152 0.22218-0.0134 0.0189-0.0286 0.1469-0.0582 0.28448-0.0658 0.13757-0.008 0.48135-0.0692 0.76395-0.13683 0.28259-0.0677 0.57927-0.12161 0.65929-0.11988 0.08 0.002 0.1455-0.019 0.1455-0.0461s0.0946-0.0482 0.21015-0.0469c0.39331 0.004 1.4379-0.0927 1.6974-0.15785 0.14226-0.0357 0.68058-0.0724 1.1963-0.0816 0.5157-0.009 1.1268-0.0481 1.3579-0.0865 0.23117-0.0383 0.46396-0.0704 0.51731-0.0713 0.13181-0.002 1.7378-0.16259 2.6512-0.26493 0.98956-0.11086 1.435-0.13682 2.3602-0.13753 0.42678-0.00061 0.9651-0.004 1.1963-0.007 0.48674-0.008 0.47317-0.008 1.067 0.0272 2.4396 0.1453 3.0325 0.15966 3.1444 0.0762 0.071-0.0529 0.11878-0.22047 0.14682-0.51497 0.0229-0.2401 0.0703-0.50731 0.10549-0.5938 0.0352-0.0865 0.0625-0.22966 0.0608-0.31817-0.004-0.20275 0.12003-0.75526 0.23644-1.0542 0.0488-0.12542 0.0889-0.2751 0.0891-0.33263 0-0.10922 0.30526-0.88673 0.52112-1.3286 0.0689-0.14101 0.12522-0.28078 0.12522-0.3106 0-0.0298 0.0435-0.13218 0.0966-0.22746 0.0531-0.0953 0.0968-0.21753 0.097-0.27168 0-0.0541 0.0453-0.19895 0.10016-0.32177l0.0998-0.22332-0.27759 0.0297c-0.15267 0.0164-0.48128 0.0639-0.73024 0.10558-0.24895 0.0417-0.69998 0.0813-1.0023 0.088-0.30231 0.007-0.68059 0.047-0.84063 0.0896-0.16376 0.0436-0.74336 0.0857-1.3256 0.0962-0.56904 0.0103-1.2529 0.0338-1.5196 0.0522-0.601 0.0415-0.7846 0.0455-1.5355 0.0333-0.32884-0.005-0.63001 0.009-0.66927 0.0316-0.0679 0.0393-0.60601 0.12275-1.093 0.16957-0.12448 0.012-0.34272 0.04-0.48498 0.0623s-0.81153 0.0511-1.4873 0.064c-0.71043 0.0135-1.3241 0.0538-1.4549 0.0954-0.26861 0.0854-0.75185 0.17505-1.187 0.22013-0.24554 0.0254-0.35343 0.0738-0.49459 0.22152l-0.18055 0.18899-1.0897 0.01c-1.498 0.0136-2.0787 0.0706-2.3037 0.22625-0.16228 0.11221-0.28866 0.12695-1.2293 0.14337-1.503 0.0263-2.3086 0.0785-3.1282 0.20305-0.43452 0.066-0.93285 0.0517-1.435-0.0413-0.20585-0.0381-0.21314-0.0336-0.14322 0.0886 0.077 0.13453 0.0241 0.16191-0.26886 0.13929-0.0614-0.005-0.19236 0.0216-0.29099 0.0586-0.22863 0.0857-0.53235 0.11247-1.3668 0.12055-0.56555 0.005-0.70384 0.0266-0.88563 0.1352-0.38667 0.231-0.43611 0.55902-0.18753 1.2441 0.0898 0.24758 0.14892 0.48528 0.1313 0.52823-0.0176 0.0429 0.008 0.15336 0.057 0.24536 0.21442 0.40263 0.39439 1.7506 0.26073 1.9529-0.0195 0.0295 0.006 0.14741 0.0576 0.26199l0.0931 0.20835 0.86278-0.0316c0.47452-0.0174 0.91192-0.0556 0.972-0.0849zm-45.503 10.348c-0.1067-0.022-0.26674-0.0289-0.35565-0.0154-0.0889 0.0135-0.3799-0.045-0.64664-0.13009-0.26674-0.0851-0.57818-0.15484-0.69209-0.15507-0.11392 0-0.28148-0.0321-0.37237-0.0708-0.12797-0.0545-0.19978-0.0531-0.31828 0.006-0.10727 0.0537-0.18927 0.0585-0.27427 0.0159-0.0667-0.0334-0.1435-0.061-0.1707-0.0613-0.0272-0.0006-0.24544-0.0298-0.48498-0.0654s-0.62466-0.0788-0.85584-0.0959c-0.23117-0.0171-0.49306-0.0465-0.58197-0.0654s-0.29075-0.007-0.44852 0.0262c-0.1717 0.0362-0.33022 0.0388-0.39487 0.006-0.13532-0.0677-2.5926-0.0985-2.7044-0.0339-0.04521 0.0261-0.26207 0.048-0.48191 0.0486-0.21984 0.00061-0.45064 0.026-0.51288 0.0565-0.06994 0.0342-0.15867 0.0326-0.23232-0.004-0.08204-0.0411-0.22692-0.0331-0.46524 0.0257-0.20319 0.0501-0.37438 0.0634-0.41461 0.0322-0.12618-0.0979-1.1375-0.19734-1.3214-0.12986-0.16743 0.0615-0.70363 0.15719-1.2038 0.21494-0.14226 0.0164-0.40186 0.0552-0.57688 0.0862s-0.34962 0.047-0.38798 0.0357-0.33164-0.038-0.65173-0.0593c-0.71004-0.0472-0.77384-0.0551-1.0993-0.1373-0.14226-0.0359-0.43325-0.0829-0.64664-0.1044-0.83672-0.0844-1.708-0.29513-2.1986-0.53189-0.1067-0.0515-0.38313-0.13984-0.6143-0.19633-0.23117-0.0565-0.51705-0.14234-0.63528-0.19078-0.11824-0.0484-0.29283-0.0982-0.38798-0.11067-0.52738-0.0689-1.0834-0.37398-1.842-1.0107-0.1486-0.12474-0.29972-0.2268-0.33582-0.2268s-0.10198-0.0544-0.14639-0.12096c-0.04442-0.0665-0.12174-0.12095-0.17182-0.12095s-0.10076-0.0208-0.11262-0.0461c-0.03243-0.0694-0.69117-0.49818-0.76533-0.49818-0.03548 0-0.06452-0.0254-0.06452-0.0564s-0.06107-0.0745-0.13571-0.0967-0.18738-0.0852-0.25054-0.14016c-0.51263-0.44585-0.64837-0.57602-0.64837-0.62177 0-0.0289-0.04365-0.0526-0.097-0.0526s-0.097-0.023-0.097-0.0512-0.06093-0.11662-0.13539-0.19655c-0.07446-0.0799-0.29191-0.36306-0.48322-0.62916-0.49571-0.68953-0.7351-1.0026-0.84592-1.1062-0.05314-0.0497-0.25282-0.27017-0.44374-0.48996-0.19093-0.21978-0.58168-0.63068-0.86836-0.91311-0.28667-0.28243-0.52122-0.5314-0.52122-0.55327 0-0.0496-1.4667-1.8807-1.7372-2.1688-0.1093-0.11642-0.22189-0.23889-0.25019-0.27216-0.43859-0.51546-0.5727-0.67017-0.60288-0.6955-0.01982-0.0166-0.21564-0.24796-0.43515-0.51407-0.21952-0.26611-0.52971-0.63351-0.6893-0.81646-0.1596-0.18295-0.39324-0.47189-0.5192-0.64209s-0.44701-0.54743-0.71344-0.83827c-0.26643-0.29086-0.48441-0.55303-0.48441-0.58261 0-0.0296-0.03906-0.0538-0.08681-0.0538s-0.14176-0.0954-0.2089-0.21202c-0.06715-0.11662-0.1663-0.22615-0.22034-0.24341-0.05404-0.0173-0.2001-0.15867-0.32458-0.31424-0.12448-0.15558-0.35727-0.41608-0.51731-0.57889-0.16004-0.16282-0.31712-0.34103-0.34906-0.39604-0.03194-0.055-0.11569-0.15194-0.18612-0.21542-0.12555-0.11316-0.13244-0.11319-0.35402-0.002-0.12428 0.0626-0.27144 0.20299-0.327 0.31198-0.05556 0.10898-0.13826 0.19815-0.18377 0.19815s-0.11712 0.0612-0.15912 0.13608c-0.04201 0.0748-0.11764 0.15881-0.16806 0.1866-0.05042 0.0278-0.11165 0.10053-0.13605 0.16166-0.06268 0.15698-0.49049 0.6192-0.97354 1.0518-0.22652 0.20289-0.61936 0.5624-0.87296 0.79892-0.25361 0.23651-0.56295 0.48701-0.68743 0.55667-0.12448 0.0696-0.3046 0.20536-0.40028 0.30157-0.09568 0.0962-0.32119 0.27995-0.50114 0.40829-0.17995 0.12836-0.32718 0.25499-0.32718 0.28142 0 0.0264-0.02848 0.0481-0.06329 0.0481s-0.20692 0.12928-0.38246 0.28728c-0.59166 0.53253-1.0066 0.84-1.5265 1.131-0.28452 0.15927-0.57551 0.33839-0.64664 0.39806-0.07113 0.0597-0.27188 0.17889-0.44612 0.26494-0.17424 0.0861-0.41226 0.23129-0.52895 0.32277-0.56482 0.44276-0.69293 0.53592-0.85485 0.6216-0.21607 0.11433-0.66913 0.3849-1.0259 0.61264-0.14807 0.0945-0.31394 0.17188-0.3686 0.17188s-0.12265 0.034-0.15109 0.0756-0.18266 0.14037-0.3427 0.21954c-0.981 0.48525-1.1376 0.56618-1.193 0.61663-0.03379 0.0308-0.12443 0.0559-0.20144 0.0559-0.077 0-0.21593 0.0559-0.30874 0.12413-0.0928 0.0683-0.2204 0.13556-0.28354 0.1495-0.13994 0.0309-0.71286 0.20357-0.89078 0.26843-0.07113 0.0259-0.50761 0.17393-0.96996 0.32888-0.46234 0.15495-0.98668 0.33535-1.1652 0.4009-0.17851 0.0656-0.35752 0.11917-0.3978 0.11917s-0.31616 0.10582-0.61306 0.23515c-0.57364 0.24988-2.4352 0.91395-2.562 0.91395-0.0415 0-0.1709 0.0489-0.28757 0.10864-0.11667 0.0598-0.34307 0.14405-0.50311 0.18733-0.16004 0.0433-0.34152 0.10325-0.40327 0.13328-0.06176 0.03-0.16047 0.0546-0.21936 0.0546s-0.343 0.0937-0.63135 0.2082c-0.7859 0.3121-1.2185 0.43369-2.1426 0.60231-1.3026 0.23767-1.9571 0.3202-2.07 0.26106-0.06256-0.0327-0.30445-0.014-0.63142 0.049-0.513 0.0988-1.4462 0.17722-2.9226 0.24558-1.1576 0.0536-1.2766 0.0485-1.3604-0.0588-0.0901-0.11524-0.45546-0.12955-0.72076-0.0282-0.10012 0.0382-0.38573 0.0795-0.63468 0.0916-0.24896 0.0121-0.64179 0.0469-0.87296 0.0772s-0.59491 0.0425-0.8083 0.027-0.49652-0.0288-0.62917-0.0296c-0.13265-0.00078-0.25563-0.0233-0.27328-0.05s-0.10354-0.0358-0.19087-0.0202c-0.21286 0.0381-0.90769-0.36449-1.1102-0.64316-0.08744-0.12035-0.24398-0.23817-0.36507-0.27478-0.1621-0.049-0.21681-0.10323-0.23246-0.23041-0.01171-0.0952-0.0601-0.16631-0.11316-0.16631-0.05098 0-0.0927-0.0375-0.0927-0.0833s-0.04365-0.11719-0.097-0.1586c-0.05335-0.0414-0.09736-0.1468-0.09782-0.2342-0.000452-0.0874-0.08047-0.30859-0.17782-0.49154-0.15966-0.30004-0.23084-0.56665-0.14115-0.52868 0.01897 0.008 0.11302-0.0335 0.20899-0.0923s0.30783-0.12403 0.4708-0.14492c0.16297-0.0209 0.33051-0.0686 0.37231-0.1061 0.07572-0.0678 0.52852-0.23618 1.4844-0.55184 0.27672-0.0914 0.5185-0.18941 0.53729-0.21784 0.01879-0.0284 0.08963-0.0517 0.15742-0.0517 0.15777 0 0.69169-0.16002 0.91147-0.27317 0.19939-0.10266 1.1022-0.41589 1.6089-0.55822 0.19561-0.0549 0.3941-0.13529 0.4411-0.17856 0.047-0.0433 0.12136-0.0787 0.16526-0.0787s0.17842-0.068 0.29893-0.1512 0.26505-0.1512 0.32119-0.1512c0.13969 0 1.019-0.31972 1.6736-0.60853 0.2969-0.13099 0.57559-0.23817 0.61932-0.23817 0.07735 0 1.0031-0.36187 1.5891-0.6212 0.16004-0.0708 0.62086-0.32063 1.024-0.55513 0.40318-0.23449 0.80329-0.46186 0.88912-0.50526 0.08584-0.0434 0.15607-0.10462 0.15607-0.13607 0-0.0315 0.02679-0.0572 0.05954-0.0572 0.07003 0 1.2954-0.65567 1.4038-0.75114 0.04079-0.0359 0.22291-0.17365 0.4047-0.30605 0.1818-0.13239 0.33054-0.26166 0.33054-0.28727 0-0.0256 0.03338-0.0465 0.07417-0.0465s0.20593-0.10098 0.36698-0.22441c0.16104-0.12342 0.44635-0.32187 0.63401-0.44099s0.43718-0.29703 0.55448-0.39536c0.1173-0.0983 0.31512-0.22937 0.4396-0.29121 0.27175-0.135 1.2565-0.74052 1.3726-0.84398 0.0453-0.0404 0.16238-0.10653 0.26019-0.14701 0.0978-0.0405 0.17783-0.1014 0.17783-0.13537 0-0.034 0.0422-0.0618 0.09378-0.0618s0.11705-0.0374 0.14549-0.0831 0.2554-0.22698 0.50436-0.4028c0.24896-0.1758 0.5-0.36292 0.55788-0.4158 0.19567-0.1788 0.38092-0.30783 0.44194-0.30783 0.03339 0 0.08398-0.0341 0.11242-0.0758 0.05191-0.0761 0.76196-0.52902 0.8293-0.52902 0.03408 0 0.41451-0.238 0.48335-0.30239 0.01778-0.0166 0.18504-0.12549 0.37169-0.24191 0.18665-0.11643 0.33942-0.23209 0.33948-0.25704 0.000065-0.025 0.03297-0.0454 0.07311-0.0454s0.23656-0.10331 0.43648-0.22958 0.50853-0.30806 0.6858-0.40397c0.17727-0.0959 0.35186-0.1963 0.38798-0.22309 0.03612-0.0268 0.15717-0.11716 0.269-0.20082 0.11183-0.0837 0.23525-0.15211 0.27427-0.15211s0.10729-0.0544 0.15171-0.12096c0.04442-0.0665 0.10054-0.12096 0.1247-0.12096 0.09158 0 1.3474-0.91485 1.4129-1.0292 0.03772-0.0659 0.10093-0.11985 0.14047-0.11985s0.19618-0.0953 0.34809-0.21168c0.15191-0.11642 0.29313-0.21167 0.31381-0.21167 0.02069 0 0.09136-0.0476 0.15704-0.10584 0.12608-0.11174 0.90994-0.69687 1.481-1.1055 0.24962-0.17864 0.33948-0.28294 0.33948-0.39403 0-0.1012 0.05174-0.17314 0.15669-0.21786 0.08618-0.0367 0.1744-0.1328 0.19606-0.21351 0.02166-0.0807 0.31423-0.45932 0.65016-0.84136 0.71532-0.8135 1.0017-1.1904 1.0017-1.3184 0-0.12149-0.94314-0.9944-1.8752-1.7356-1.2664-1.0071-1.6002-1.3317-3.073-2.9885-0.35482-0.39916-0.66109-0.73936-0.68058-0.75599-0.0195-0.0166-0.10638-0.12549-0.19308-0.24191-0.19476-0.26153-0.33619-0.42354-0.71054-0.81391-0.16084-0.16772-0.43614-0.48185-0.61179-0.69806-0.17564-0.21621-0.33504-0.40672-0.3542-0.42335-0.01917-0.0166-0.06395-0.0765-0.09951-0.13296-0.13054-0.20737-0.4555-0.6309-0.70932-0.92449-0.14335-0.1658-0.30428-0.35359-0.35763-0.41732-0.05335-0.0637-0.14792-0.16619-0.21016-0.22772-0.06224-0.0615-0.11316-0.13256-0.11316-0.15785 0-0.0253-0.06547-0.11464-0.14549-0.19857-0.08002-0.0839-0.24626-0.27416-0.36942-0.42274-0.12316-0.14857-0.24683-0.2792-0.27482-0.29029-0.02799-0.0111-0.05103-0.0519-0.05119-0.0907-0.000194-0.0388-0.08121-0.1522-0.1801-0.25199-0.21734-0.21935-0.59556-0.73979-0.59556-0.81953 0-0.0316-0.04365-0.0575-0.097-0.0575s-0.09699-0.0275-0.09699-0.0612c0-0.0336-0.1164-0.22064-0.25866-0.41557-0.14226-0.19492-0.25866-0.37894-0.25866-0.40892 0-0.03-0.09457-0.18998-0.21016-0.35554s-0.24819-0.43709-0.29467-0.60341c-0.04648-0.16631-0.13288-0.37043-0.19201-0.45359-0.05912-0.0832-0.09968-0.18587-0.09012-0.22824 0.01506-0.0668-0.28466-0.65512-0.37668-0.73942-0.01815-0.0166-0.11237-0.13978-0.20937-0.27367s-0.29333-0.34711-0.4363-0.47381c-0.14296-0.12671-0.25994-0.2803-0.25994-0.34133 0-0.13199 0.80318-0.89295 1.0346-0.98024 0.4065-0.15331 1.082-0.36488 1.2286-0.38478 0.25107-0.0341 1.3142 0.10719 1.4226 0.18906 0.05335 0.0403 0.16247 0.0919 0.24249 0.1147s0.14549 0.0657 0.14549 0.0954 0.12153 0.15711 0.27006 0.28319c0.38038 0.32288 0.65206 0.60719 0.75931 0.79461 0.07202 0.12586 0.41096 0.31157 0.56864 0.31157 0.04998 0 0.07289 0.0272 0.05091 0.0605s-0.0017 0.0605 0.04506 0.0605 0.12311 0.0885 0.16965 0.19655c0.09264 0.21516 0.11242 0.24826 0.30215 0.50558 0.13641 0.18502 0.74938 0.74801 0.81532 0.74886 0.0214 0 0.13025 0.0821 0.2419 0.18193 0.11165 0.0998 0.2304 0.18144 0.26389 0.18144s0.07847 0.0518 0.09996 0.11512c0.02149 0.0633 0.13615 0.15821 0.25481 0.21087 0.12381 0.0549 0.24999 0.17308 0.29611 0.27722 0.0442 0.0998 0.10104 0.16952 0.12631 0.15492 0.06177-0.0357 0.55689 0.20363 0.87746 0.42416 0.60382 0.41538 1.1308 0.84055 1.1308 0.9123 0 0.10409 0.51943 0.46848 0.94613 0.66373 0.19089 0.0874 0.46626 0.26189 0.61194 0.38787 0.40389 0.34927 0.5047 0.42205 0.58458 0.42205 0.04038 0 0.13834 0.0612 0.21768 0.13608 0.2281 0.21516 0.9412 0.7922 1.1023 0.89202 0.54063 0.33487 1.0715 0.69187 1.1346 0.76297 0.04089 0.0461 0.10871 0.0838 0.15073 0.0838 0.1114 0 0.48974 0.38235 0.48974 0.49494 0 0.0528 0.1036 0.14205 0.23023 0.19824 0.12662 0.0562 0.24613 0.14095 0.26557 0.18833 0.01944 0.0474 0.07761 0.0862 0.12927 0.0862 0.13025 0 0.6682 0.42992 0.6682 0.53401 0 0.0468 0.08598 0.17664 0.19108 0.28858l0.19107 0.20355 0.09991-0.13342c0.05495-0.0734 0.09991-0.15865 0.09991-0.18951 0-0.0873 0.426-0.90844 0.85114-1.6406 0.29961-0.516 0.50198-0.93773 0.57573-1.1998 0.03895-0.1384 0.12357-0.33674 0.18804-0.44074 0.06448-0.104 0.13773-0.2809 0.16278-0.39311 0.02506-0.11221 0.11416-0.35371 0.19801-0.53666 0.08385-0.18294 0.18316-0.44549 0.22069-0.58345 0.03753-0.13794 0.11466-0.26747 0.17139-0.28783 0.07297-0.0262 0.09141-0.0808 0.06305-0.18649-0.02467-0.0919 0.01004-0.2547 0.09014-0.42279 0.07163-0.15032 0.18844-0.39549 0.25957-0.54481 0.07113-0.14933 0.12925-0.29221 0.12915-0.31752 0-0.0253 0.05657-0.15488 0.12594-0.28793 0.11033-0.21163 0.20101-0.41722 0.22676-0.51407 0.01397-0.0526 0.23342-0.50682 0.33342-0.69019 0.05381-0.0987 0.07024-0.19176 0.03736-0.21168-0.0791-0.0479-0.06481-0.68988 0.01654-0.74284 0.09122-0.0594 0.07544-1.3107-0.01922-1.5238-0.06519-0.14673-0.06045-0.19256 0.02958-0.28559 0.08497-0.0878 0.09823-0.17707 0.06386-0.43002-0.02385-0.17555-0.05689-0.49609-0.07342-0.7123-0.05443-0.71192-0.23204-1.5148-0.35969-1.6261-0.06803-0.0593-0.11631-0.18024-0.1126-0.28211 0.0077-0.20993-0.0498-0.97003-0.10264-1.3577-0.0204-0.14969-0.05061-0.57153-0.06713-0.93742-0.01651-0.3659-0.0459-0.77413-0.0653-0.90718-0.0194-0.13306-0.0373-0.28274-0.03979-0.33264-0.0105-0.2108-0.13164-0.82583-0.18463-0.93742-0.0711-0.14971-0.1515-0.44378-0.16536-0.60478-0.01533-0.17803-0.22369-1.1194-0.29557-1.3354l-0.06201-0.18629-1.0817 0.0245c-0.59495 0.0135-1.1545 0.0311-1.2434 0.0391-0.08891 0.008-0.43082 0.0367-0.7598 0.0637-0.32898 0.0271-0.59814 0.0707-0.59814 0.097s-0.10449 0.0208-0.2322-0.0122-0.27736-0.0438-0.33254-0.024-0.51084 0.0517-1.0126 0.0709c-0.50173 0.0192-0.93579 0.0484-0.96457 0.0648-0.06764 0.0388-0.97031 0.10351-1.3056 0.0937-0.84348-0.0247-1.0017-0.0231-1.1185 0.0115-0.09997 0.0297-0.16104-0.01-0.2704-0.17544-0.1034-0.15649-0.18655-0.21377-0.31027-0.21377-0.17543 0-0.53174 0.26756-0.53174 0.39928 0 0.0409-0.13094 0.18207-0.29099 0.31382-0.16004 0.13176-0.29099 0.27069-0.29099 0.30874 0 0.0839-0.29275 0.52497-0.45972 0.69259-0.06643 0.0667-0.13861 0.17379-0.1604 0.23801-0.05361 0.15797-0.16987 0.29165-0.73782 0.84835-0.84415 0.82744-1.0318 0.98661-1.3242 1.1232-0.16401 0.0766-0.34597 0.2251-0.42804 0.3493-0.07852 0.11882-0.24143 0.2546-0.36204 0.30173-0.1206 0.0471-0.23404 0.12166-0.25208 0.16564-0.01804 0.044-0.21691 0.22239-0.44193 0.39648-0.22502 0.1741-0.44906 0.38732-0.49786 0.47383-0.10387 0.18413-0.36036 0.43693-0.4433 0.43693-0.03174 0-0.30856 0.23813-0.61515 0.52919-0.3066 0.29105-0.75131 0.71289-0.98825 0.93742-0.23694 0.22452-0.4632 0.40823-0.5028 0.40823s-0.22959 0.10275-0.4222 0.22833c-0.33142 0.2161-1.0189 0.55789-1.122 0.55789-0.02621 0-0.1688 0.0758-0.31687 0.16849-0.37667 0.23571-0.50436 0.30622-0.68686 0.37927-0.08744 0.035-0.32277 0.1682-0.52296 0.296-0.20018 0.1278-0.48905 0.29641-0.64191 0.37469-0.39844 0.20403-0.49188 0.25762-0.61259 0.35131-0.05903 0.0458-0.22945 0.14015-0.37871 0.20961-0.14926 0.0695-0.39448 0.20102-0.54493 0.29233-0.15044 0.0913-0.30361 0.16602-0.34036 0.16602s-0.11735 0.0264-0.17911 0.0586c-0.24236 0.12642-0.77689 0.25865-1.1313 0.27985-0.42854 0.0256-0.59766 0.052-0.82389 0.1284-0.1721 0.0581-1.0405 0.0521-1.3924-0.01-0.11613-0.0204-0.24674-0.0772-0.29023-0.12617-0.04349-0.049-0.13021-0.0891-0.1927-0.0891-0.18935 0-0.74651-0.7103-1.0318-1.3154-0.04266-0.0905-0.12009-0.13608-0.23106-0.13608-0.17745 0-0.54094-0.31532-0.55585-0.48219-0.02611-0.29218-0.04573-0.37032-0.11163-0.44458-0.04014-0.0452-0.05453-0.0995-0.03196-0.12063 0.02257-0.0211-0.0066-0.0555-0.06485-0.0764-0.05823-0.0209-0.09166-0.0595-0.07429-0.0858s-0.01189-0.0634-0.06504-0.0825c-0.13304-0.0478-0.12171-0.15884 0.01654-0.16211 0.06726-0.002 0.0148-0.0512-0.12933-0.1224-0.13337-0.0658-0.24249-0.14388-0.24249-0.17339 0-0.0295 0.16732-0.0662 0.37182-0.0815s0.47366-0.0535 0.59814-0.085 0.29907-0.0377 0.38798-0.0138c0.45294 0.1215 1.5617 0.0417 1.8752-0.13495 0.05335-0.0301 0.24249-0.12365 0.42031-0.20799 0.17782-0.0843 0.48278-0.23332 0.67769-0.33108 0.1949-0.0978 0.38404-0.17844 0.42031-0.1793s0.1598-0.13013 0.27452-0.28728c0.11471-0.15714 0.27476-0.35849 0.35565-0.44744 0.08089-0.089 0.21982-0.24861 0.30874-0.35478 0.08891-0.10617 0.20131-0.22389 0.24977-0.26161 0.04846-0.0377 0.21807-0.18425 0.37692-0.32562 0.15885-0.14136 0.30185-0.25703 0.31779-0.25703 0.08766 0 0.84273-0.69366 1.3511-1.2412 0.21339-0.22985 0.57712-0.59843 0.8083-0.81907 0.59711-0.56993 1.1546-1.1646 1.4326-1.528 0.13152-0.17196 0.30307-0.37816 0.38122-0.45824 0.07815-0.0801 0.24089-0.29779 0.36164-0.48382 0.35556-0.54779 0.37191-0.57114 0.53056-0.75763 0.13913-0.16355 0.14282-0.18455 0.04425-0.25197-0.09175-0.0627-0.09507-0.0922-0.02261-0.20072 0.04671-0.07 0.13711-0.14267 0.2009-0.1616 0.06386-0.019 0.13376-0.1176 0.15556-0.21951 0.03067-0.14342 0.09473-0.20533 0.28466-0.27511 0.17434-0.0641 0.27557-0.15324 0.35071-0.30901 0.15469-0.32065 0.5865-1.0221 0.67463-1.0959 0.11704-0.098 0.42568-0.53488 0.62038-0.87812 0.27157-0.47877 0.49078-0.80331 0.65282-0.96648 0.06607-0.0665 0.16357-0.20261 0.21667-0.3024 0.05311-0.0998 0.14768-0.22545 0.21016-0.27925s0.1136-0.11684 0.1136-0.14011c0-0.0233 0.06773-0.12893 0.1505-0.23482 0.08278-0.10589 0.23554-0.34894 0.33948-0.54013 0.10394-0.19118 0.20735-0.34767 0.2298-0.34775 0.0735-0.00024 0.49486-0.99186 0.53239-1.2529 0.04337-0.3017 0.30769-1.0591 0.38886-1.1143 0.03123-0.0212 0.03679-0.0688 0.01235-0.10584-0.02444-0.037-0.01792-0.0672 0.01448-0.0672 0.07566 0 0.41044-0.69378 0.59827-1.2398 0.08009-0.23285 0.16462-0.43696 0.18784-0.45359 0.02322-0.0166 0.09408-0.16632 0.15747-0.33264 0.06339-0.16631 0.13213-0.34321 0.15276-0.39311 0.08508-0.2058 0.14103-0.41845 0.17504-0.66526 0.03219-0.23368 0.20689-0.75814 0.42306-1.2701 0.07725-0.18295 0.15622-0.38123 0.17548-0.44062 0.01926-0.0594 0.08955-0.20803 0.1562-0.3303s0.12118-0.26938 0.12118-0.32691c0-0.0575 0.0291-0.12142 0.06466-0.14198 0.03556-0.0206 0.06638-0.0834 0.06848-0.13965 0.0021-0.0563 0.07238-0.22473 0.15619-0.37442 0.37973-0.67824 0.65748-1.3418 0.81002-1.9353 0.02993-0.11642 0.1017-0.33138 0.15949-0.4777 0.0578-0.14631 0.11722-0.47289 0.13206-0.72574 0.01483-0.25285 0.03027-0.45972 0.03428-0.45972 0.02026 0 0.19462-0.80537 0.2294-1.0596 0.10393-0.75966 0.33752-1.7416 0.604-2.5389 0.03891-0.11642 0.08539-0.32053 0.10329-0.45359 0.0179-0.13305 0.07578-0.4006 0.12861-0.59455 0.05284-0.19395 0.09606-0.41885 0.09606-0.49977 0-0.0809 0.02766-0.19439 0.06146-0.25215 0.08569-0.1464 0.40492-1.5255 0.48533-2.0966 0.02309-0.16401 0.05743-0.32157 0.0763-0.35013 0.01888-0.0286 0.03432-0.17363 0.03432-0.32236 0-0.21996-0.05566-0.34945-0.29829-0.69389-0.16406-0.2329-0.3258-0.49116-0.35944-0.5739-0.03363-0.0827-0.08387-0.15044-0.11163-0.15044-0.02777 0-0.08955-0.0825-0.1373-0.18345-0.04775-0.1009-0.18776-0.28354-0.31112-0.40588-0.12337-0.12234-0.24053-0.29833-0.26036-0.3911-0.01984-0.0928-0.06153-0.16866-0.09265-0.16866s-0.05658-0.0333-0.05658-0.0741c0-0.0407-0.10912-0.16722-0.24249-0.28108-0.1453-0.12404-0.19065-0.18868-0.11316-0.16129 0.53156 0.1879 0.51494 0.19098 1.2229-0.22703 0.18767-0.11081 0.39565-0.3093 0.37749-0.36028-0.0089-0.0249 0.07043-0.0454 0.17626-0.0454 0.10584 0 0.2877-0.0543 0.40415-0.12073 0.11645-0.0664 0.27811-0.12083 0.35925-0.12096 0.08113-0.00012 0.16148-0.0342 0.17855-0.0758 0.02096-0.0511 0.17639-0.0741 0.479-0.071 0.37233 0.004 0.49208 0.0319 0.70919 0.16632 0.14368 0.0889 0.34187 0.16304 0.44044 0.16471 0.09857 0.002 0.36666 0.0629 0.59576 0.13608 0.40333 0.12882 0.41999 0.14241 0.5252 0.42848 0.09239 0.2512 0.14442 0.30693 0.34753 0.37224 0.13138 0.0422 0.29016 0.12022 0.35284 0.17327 0.06269 0.0531 0.18346 0.0965 0.26838 0.0965 0.20407 0 0.70749 0.1755 0.87003 0.30329 0.07113 0.0559 0.29453 0.18833 0.49644 0.29423s0.3765 0.21368 0.38798 0.23951c0.01148 0.0258 0.16636 0.13852 0.34419 0.25044 0.17782 0.11192 0.4189 0.28043 0.53572 0.37447 0.11682 0.094 0.24365 0.17099 0.28182 0.17099 0.03818 0 0.22692 0.14968 0.41943 0.33263s0.37933 0.33264 0.41515 0.33264c0.13066 0 0.84436 0.36989 0.87965 0.45589 0.01997 0.0487 0.15843 0.13902 0.3077 0.20077 0.43313 0.1792 1.3313 0.82725 1.3313 0.96057 0 0.0419 0.02405 0.0762 0.05344 0.0762 0.04936 0 0.61714 0.45281 0.96686 0.7711 0.08224 0.0748 0.17003 0.13644 0.19508 0.13688 0.02506 0.00042 0.2056 0.13582 0.40121 0.30084 0.2746 0.23166 0.43272 0.31509 0.6938 0.3661 0.35233 0.0688 0.531 0.22276 0.6289 0.54183 0.02551 0.0832 0.11206 0.20563 0.19232 0.27215 0.16982 0.14076 0.55423 0.65913 0.55423 0.74738 0 0.0332 0.06979 0.11165 0.15508 0.1744 0.16746 0.1232 0.42689 0.53385 0.42689 0.67572 0 0.0893 0.0797 0.3421 0.23559 0.74728 0.10913 0.28364 0.1144 0.8417 0.0089 0.94039-0.04337 0.0406-0.1418 0.27053-0.21874 0.51104-0.07694 0.24052-0.21285 0.61946-0.30204 0.84209-0.08919 0.22264-0.14889 0.4172-0.13268 0.43235 0.03811 0.0356-0.36047 0.77526-0.46104 0.85556-0.04215 0.0337-0.12581 0.13546-0.1859 0.22625-0.06009 0.0908-0.20354 0.20998-0.31879 0.26489-0.11525 0.0549-0.2532 0.13717-0.30654 0.1828-0.20765 0.1776-0.76211 0.5568-0.94221 0.64438-0.10417 0.0507-0.25468 0.16274-0.33447 0.24907-0.09447 0.10223-0.21098 0.15696-0.3341 0.15696-0.10397 0-0.19872 0.0216-0.21058 0.0479-0.03549 0.0789-0.48137 0.31494-0.59499 0.31494-0.05804 0-0.10571 0.0204-0.10594 0.0454 0 0.0249-0.08754 0.0917-0.19402 0.14839-0.10648 0.0567-0.22996 0.17914-0.27441 0.27216-0.08426 0.17633-0.14524 0.25623-0.47097 0.61707-0.10789 0.11952-0.28094 0.32617-0.38456 0.45923-0.10362 0.13305-0.21904 0.26133-0.25648 0.28507-0.03745 0.0237-0.06808 0.0752-0.06808 0.11436 0 0.0392-0.05661 0.1014-0.1258 0.13828-0.28129 0.14998-0.61784 0.45064-0.61784 0.55196 0 0.0345-0.0582 0.10939-0.12933 0.16635-0.07326 0.0587-0.12933 0.17841-0.12933 0.27622 0 0.0981-0.05813 0.22185-0.13467 0.28664-0.07406 0.0627-0.17629 0.20716-0.22717 0.32105s-0.10843 0.19217-0.1279 0.17396c-0.04322-0.0404-0.35088 0.23928-0.35088 0.31899 0 0.0314-0.05092 0.11566-0.11316 0.18732-0.36874 0.42452-0.44849 0.52635-0.56218 0.7178-0.06913 0.11642-0.16414 0.24805-0.21113 0.29251-0.2199 0.20806-0.4162 0.4988-0.43234 0.64036-0.0098 0.0858-0.03712 0.17404-0.06078 0.19616-0.02365 0.0221-0.04301 0.0802-0.04301 0.12905 0 0.0771-0.12842 0.20639-0.43648 0.43943-0.04446 0.0336-0.08083 0.11427-0.08083 0.17919 0 0.13633-0.36202 0.59989-0.63824 0.81728-0.18297 0.14399-0.5257 0.67912-0.5257 0.8208 0 0.0491 0.13838 0.0604 0.46881 0.0381 0.43068-0.0291 1.2472 0.0746 1.4329 0.1819 0.07931 0.0458 0.09877 0.0491 0.77918 0.13123 0.28305 0.0342 0.9097 0.0651 1.3925 0.0687 0.81571 0.006 0.95331-0.0104 1.9426-0.23454 1.1117-0.25184 1.2854-0.28661 1.7113-0.34268 0.87562-0.11525 1.4858-0.22409 1.6068-0.28662 0.07652-0.0395 0.23625-0.0785 0.35496-0.0866 0.22451-0.0153 0.78138-0.16457 1.0228-0.27422 0.07663-0.0348 0.16811-0.0467 0.20328-0.0263 0.03516 0.0203 0.18798-0.004 0.33957-0.054 0.1516-0.05 0.28783-0.0795 0.30274-0.0656s0.11949-0.00093 0.2324-0.0331c0.11291-0.0321 0.46718-0.0969 0.78726-0.14407 0.32008-0.0471 0.72747-0.11482 0.90529-0.15047 0.27987-0.0561 0.61606-0.11821 1.4873-0.27476 0.56812-0.10209 1.7293-0.39249 1.8114-0.453 0.036-0.0266 0.25424-0.0923 0.48498-0.14615 0.84786-0.19779 0.93305-0.2209 0.99896-0.27098 0.03697-0.0281 0.19816-0.086 0.3582-0.12877 0.16004-0.0427 0.36823-0.12719 0.46263-0.18768 0.0944-0.0605 0.21018-0.10998 0.25728-0.10998 0.11253 0 0.97603-0.30363 1.0551-0.37101 0.03379-0.0288 0.11024-0.0523 0.16991-0.0523 0.05966 0 0.14485-0.041 0.1893-0.0911 0.04446-0.0501 0.16106-0.0854 0.25911-0.0784s0.29075-0.0307 0.42823-0.0838 0.3754-0.1316 0.52874-0.17444c0.15333-0.0428 0.30269-0.1206 0.33191-0.17281 0.02922-0.0522 0.0696-0.28269 0.08973-0.51218 0.02014-0.22948 0.06042-0.43951 0.08952-0.46673 0.10324-0.0966 0.33375 0.0197 0.40198 0.20279 0.13134 0.35239 0.52726 0.51353 1.5239 0.62025 0.1067 0.0114 0.32494 0.048 0.48498 0.0814 0.16004 0.0333 0.64017 0.10461 1.067 0.15839 0.42678 0.0538 0.89236 0.1224 1.0346 0.15249 0.14226 0.0301 0.53509 0.0992 0.87296 0.15348 0.33787 0.0543 0.71615 0.13527 0.84063 0.17988 0.39382 0.14114 1.3379 0.39987 1.3976 0.383 0.03153-0.009 0.14462 0.0349 0.25132 0.0974s0.30249 0.1774 0.4351 0.25536c0.13261 0.078 0.26819 0.14176 0.30129 0.14176s0.26916 0.1633 0.52456 0.36288 0.48988 0.36287 0.52105 0.36287c0.06634 0 0.93187 0.80421 1.1437 1.0627 0.23787 0.29023 0.57736 0.84734 0.70518 1.1572 0.15859 0.38448 0.1553 1.9037-0.0056 2.6049-0.22394 0.97553-0.37966 1.2769-0.76059 1.4721-0.0897 0.046-0.28152 0.15758-0.42628 0.24801-0.14475 0.0904-0.35977 0.17692-0.47782 0.19219-0.11805 0.0153-0.34202 0.0716-0.49772 0.12521-0.27542 0.0948-0.61483 0.11904-1.0102 0.0721-0.70291-0.0834-0.96796-0.13488-1.4711-0.28557-0.31121-0.0932-0.64585-0.22098-0.74363-0.28396-0.15615-0.10055-0.57267-0.28135-0.66277-0.28768-0.01778-0.001-0.10508-0.0477-0.19399-0.10318-0.25048-0.15636-0.75718-0.24361-0.99468-0.17127-0.11088 0.0338-0.44307 0.0666-0.73819 0.073-0.29513 0.006-0.55146 0.0341-0.56962 0.0616-0.04818 0.0729-0.79086 0.0584-1.0924-0.0213-0.48465-0.12814-1.4579-0.0571-1.672 0.12202-0.0946 0.0791-0.25451 0.10045-0.75434 0.10045-0.56878 0-0.65606 0.0151-0.84505 0.1457-0.17405 0.12033-0.30499 0.14967-0.75188 0.16847-0.44888 0.0189-0.60153 0.0533-0.89545 0.20205-0.40417 0.20451-0.47073 0.21482-0.5706 0.0884-0.06374-0.0807-0.13259-0.0808-0.61464-0.001-0.29856 0.0493-0.67684 0.0892-0.84063 0.0886-0.16378-0.00055-0.47237 0.0285-0.68576 0.0646-0.45009 0.0761-1.1812 0.17116-1.7702 0.23021l-0.41222 0.0413 0.40408 0.29303c0.22224 0.16117 0.49504 0.32197 0.60622 0.35732 0.11118 0.0354 0.29772 0.14163 0.41455 0.23616 0.11682 0.0945 0.24098 0.17187 0.27589 0.17187 0.03492 0 0.24488 0.16083 0.46656 0.3574 0.924 0.8193 1.2463 1.092 1.2922 1.093 0.02667 0.0006 0.0485 0.0327 0.0485 0.0714 0 0.15038 0.40778 0.65778 0.55674 0.69275 0.08501 0.02 0.15457 0.0723 0.15457 0.11632 0 0.044 0.08773 0.13848 0.19497 0.20989 0.10723 0.0714 0.23786 0.20742 0.29028 0.30223 0.05242 0.0948 0.15383 0.18975 0.22535 0.21098 0.07152 0.0212 0.13004 0.0709 0.13004 0.11032 0 0.0395 0.08561 0.14729 0.19025 0.23967 0.10464 0.0924 0.20936 0.22424 0.2327 0.29304 0.02335 0.0688 0.08453 0.17004 0.13595 0.22497 0.32634 0.34858 0.54038 0.64057 0.54038 0.73719 0 0.0615 0.05381 0.14737 0.11959 0.19083 0.06577 0.0435 0.19037 0.2015 0.27688 0.35118 0.08651 0.14969 0.23124 0.38102 0.32161 0.51407 0.30131 0.44358 0.32758 0.55459 0.3331 1.4072 0.0022 0.34155-0.02602 0.68175-0.06274 0.75598-0.26975 0.54532-0.34483 0.71852-0.43866 1.0119-0.05851 0.18294-0.13786 0.39307-0.17633 0.46693-0.10055 0.19304-0.67973 0.57897-1.0201 0.67974-0.42224 0.12499-1.1617 0.78847-1.1649 1.0452-0.0015 0.11773-0.17006 0.52862-0.35188 0.85748-0.09046 0.16364-0.1646 0.34054-0.16472 0.39311 0 0.0526-0.05833 0.1847-0.12933 0.29361s-0.12909 0.23564-0.12909 0.28164c0 0.15185-0.54649 1.1745-0.70873 1.3262-0.03698 0.0346-0.06724 0.10688-0.06724 0.16067 0 0.0538-0.20369 0.47323-0.45265 0.93212s-0.45265 0.87017-0.45265 0.91395c0 0.0438-0.04543 0.12208-0.10095 0.17401-0.05553 0.0519-0.11798 0.19676-0.1388 0.32183-0.02081 0.12508-0.08698 0.29545-0.14702 0.37861-0.15219 0.21076-0.38918 0.68741-0.38918 0.78275 0 0.11044-0.4799 0.91168-0.64505 1.077-0.07478 0.0748-0.1191 0.13608-0.09849 0.13608s-0.03646 0.0746-0.1268 0.1657c-0.09036 0.0911-0.16489 0.2068-0.16564 0.25703-0.0012 0.0798-0.4833 1.025-0.69439 1.3614-0.04175 0.0665-0.16524 0.29786-0.27441 0.51407-0.10918 0.21621-0.28245 0.51558-0.38505 0.66527-0.1026 0.14968-0.18883 0.31556-0.19162 0.36861-0.0028 0.0531-0.06066 0.14351-0.1286 0.20101-0.06793 0.0575-0.14141 0.17127-0.1633 0.25283-0.02189 0.0816-0.08997 0.19747-0.15131 0.25759-0.06133 0.0601-0.19882 0.24042-0.30551 0.40066-0.41871 0.62884-0.48398 0.72994-0.5278 0.81749-0.02497 0.0499-0.1565 0.21494-0.29228 0.36676-0.13578 0.15183-0.24687 0.29885-0.24687 0.32672 0 0.10334-0.4248 0.56991-0.54964 0.60369-0.13144 0.0356-0.6143 0.57639-0.6143 0.68805 0 0.0336-0.06948 0.19262-0.1544 0.35336-0.2827 0.53508-0.28668 0.51839 0.20082 0.84318 0.24121 0.1607 0.55496 0.39202 0.69722 0.51405 0.14226 0.12204 0.46598 0.35417 0.71938 0.51586 0.5941 0.3791 1.0184 0.71069 1.7378 1.3582 0.32008 0.28808 0.78566 0.6946 1.0346 0.90338 0.3822 0.32053 1.8262 1.5713 2.0656 1.7892 0.04087 0.0372 0.13841 0.0867 0.21677 0.10992 0.07837 0.0233 0.14248 0.0782 0.14248 0.12198 0 0.0438 0.06547 0.12136 0.14549 0.17229 0.08002 0.051 0.40738 0.32604 0.72747 0.61134 0.32008 0.28529 0.6004 0.5189 0.62293 0.51913 0.02252 0 0.05674 0.0569 0.07603 0.12585 0.01929 0.069 0.09543 0.14021 0.1692 0.15825 0.07377 0.0181 0.13412 0.0572 0.13412 0.087 0 0.10881 1.9288 1.7897 2.2249 1.9389 0.08647 0.0436 0.33723 0.21048 0.55725 0.37087 0.22002 0.1604 0.44566 0.308 0.50141 0.32802 0.05576 0.02 0.15453 0.0861 0.21948 0.14684 0.06496 0.0608 0.17941 0.11046 0.25435 0.11046 0.09133 0 0.12459 0.0284 0.1009 0.0862-0.03829 0.0933 0.21009 0.27672 0.3748 0.27672 0.05455 0 0.26654 0.11922 0.47109 0.26492 0.20454 0.1457 0.54649 0.35242 0.75988 0.45938 0.21339 0.10695 0.40908 0.22904 0.43485 0.27129 0.02703 0.0443 0.11598 0.0645 0.21016 0.0476 0.14096-0.0252 0.16329-0.008 0.16329 0.12905 0 0.1787 0.2648 0.47365 0.31039 0.34574 0.01511-0.0424-0.0049-0.10739-0.04446-0.1444-0.10813-0.10113-0.08671-0.15633 0.04789-0.12342 0.06591 0.0161 0.16048 0.11386 0.21016 0.21718 0.10102 0.2101 0.67941 0.61089 0.81262 0.56308 0.0473-0.017 0.08693 0.002 0.08807 0.0428 0.0012 0.0434 0.0368 0.0309 0.08653-0.0303 0.07863-0.0968 0.09301-0.0944 0.2081 0.0351 0.2737 0.30792 0.94538 0.68505 2.1838 1.2261 0.71627 0.31294 1.4187 0.62856 1.561 0.70137 0.38466 0.19689 0.68331 0.35407 1.1409 0.60044 0.29466 0.15866 0.50255 0.22604 0.73433 0.23802 0.3421 0.0177 0.77434 0.18716 0.83127 0.32591 0.03415 0.0832 0.57269 0.33363 0.7176 0.33363 0.04263 0 0.14585 0.068 0.22938 0.1512s0.20724 0.1512 0.2749 0.1512c0.06767 0 0.21442 0.0855 0.32612 0.18994 0.1117 0.10447 0.30446 0.21612 0.42835 0.24812s0.31672 0.12342 0.42851 0.20317c0.11178 0.0797 0.2497 0.14499 0.30649 0.14499 0.05678 0 0.12123 0.0272 0.14321 0.0605 0.0488 0.0738 0.48375 0.0785 0.60529 0.006 0.13745-0.0815 0.31764-0.009 0.35876 0.14426 0.0251 0.0936 0.13307 0.17614 0.32856 0.25133 0.16014 0.0616 0.29127 0.1324 0.29141 0.15735 0 0.0249 0.0325 0.0454 0.0719 0.0454s0.27947 0.12984 0.53347 0.28855c0.254 0.1587 0.59011 0.32438 0.74691 0.36817 0.51381 0.14351 1.1152 0.58301 1.1927 0.87154 0.0239 0.0889 0.10288 0.19143 0.17559 0.22783 0.0727 0.0364 0.15547 0.12496 0.18389 0.19682 0.0401 0.10129 0.10756 0.13187 0.30034 0.13606l0.24867 0.005-0.0178 0.31376c-0.0136 0.24036 0.006 0.3223 0.084 0.35029 0.056 0.0201 0.1018 0.0889 0.1018 0.15292 0 0.064 0.0436 0.13205 0.097 0.1512 0.0534 0.0191 0.097 0.0847 0.097 0.14573 0 0.061 0.0262 0.12608 0.0583 0.14461 0.0321 0.0185 0.0773 0.19024 0.10054 0.38156 0.0343 0.28208 0.01 0.44509-0.1282 0.86193-0.0938 0.28274-0.18464 0.60933-0.20197 0.72575-0.0173 0.11642-0.0497 0.2525-0.0719 0.30239-0.0222 0.0499-0.0448 0.11793-0.0502 0.1512-0.009 0.0538-0.0858 0.24881-0.2033 0.51407-0.0221 0.0499-0.0477 0.12424-0.0568 0.16521-0.0378 0.16891-0.3361 0.43908-0.5781 0.52359-0.14226 0.0497-0.43326 0.10815-0.64665 0.12994-0.21339 0.0218-0.41709 0.0593-0.45265 0.0833-0.0356 0.024-0.15196 0.0257-0.25866 0.004zm-82.033-11.55c-0.45884-0.1132-0.86863-0.29628-1.0848-0.48465-0.07612-0.0663-0.1527-0.12059-0.17019-0.12059-0.0991 0-0.64271-0.39989-0.66837-0.49166-0.01678-0.06-0.07831-0.12331-0.13673-0.14065-0.05842-0.0173-0.14502-0.1135-0.19243-0.21368s-0.12014-0.18217-0.16162-0.18219c-0.08729-0.00006-0.56039-0.3807-0.56039-0.45089 0-0.0259-0.16732-0.2548-0.37182-0.50863s-0.51233-0.7201-0.68407-1.0361c-0.17174-0.31605-0.37673-0.64268-0.45553-0.72584-0.0788-0.0831-0.22867-0.32809-0.33305-0.5443-0.10438-0.21622-0.25585-0.49464-0.3366-0.61871-0.08075-0.12408-0.14682-0.26185-0.14682-0.30615s-0.0575-0.19187-0.12777-0.32791c-0.07028-0.13604-0.19937-0.47454-0.28688-0.75222-0.35448-1.1249-0.48325-1.4944-0.59944-1.7199-0.067-0.13006-0.12943-0.34401-0.13874-0.47546-0.0093-0.13144-0.04542-0.2711-0.08025-0.31035-0.03483-0.0392-0.07738-0.31272-0.09457-0.60771-0.0532-0.91312-0.09567-1.346-0.14603-1.4882-0.06018-0.16996-0.04972-1.3334 0.01283-1.4281 0.02523-0.0382 0.10307-0.0694 0.17299-0.0694 0.07985 0 0.15119-0.0618 0.19189-0.16632 0.12285-0.31541 0.2883-0.59037 0.49783-0.82735 0.11559-0.13072 0.21016-0.26993 0.21016-0.30935 0-0.0394 0.05634-0.13867 0.1252-0.22054 0.06923-0.0823 0.14287-0.2934 0.16472-0.47216 0.02174-0.17781 0.04979-0.33902 0.06234-0.35824 0.01255-0.0192 0.04166-0.35944 0.0647-0.75604 0.02303-0.39659 0.0531-0.73806 0.06681-0.75881 0.01371-0.0208 0.07021-0.39026 0.12556-0.82113 0.05534-0.43086 0.12961-0.96514 0.16504-1.1873 0.09119-0.57171 0.12233-1.0085 0.16528-2.3176 0.04301-1.3112 0.08577-1.6691 0.3113-2.6058 0.08878-0.36875 0.17585-0.80419 0.19348-0.96766 0.01763-0.16348 0.03673-0.29722 0.04243-0.29722s0.02362-0.12247 0.03981-0.27216c0.01619-0.14968 0.0865-0.63956 0.15625-1.0886 0.06974-0.44905 0.14396-1.075 0.16492-1.391s0.06088-0.79227 0.08873-1.0584c0.05172-0.49437 0.03441-2.7444-0.02489-3.2356-0.06281-0.52022-0.11056-0.75771-0.21246-1.0566-0.05637-0.16535-0.09767-0.39668-0.09178-0.51407 0.0059-0.11739-0.03642-0.39714-0.09402-0.62167-0.08086-0.31523-0.13106-0.40823-0.22032-0.40823-0.06882 0-0.16492-0.0918-0.23745-0.2268-0.19394-0.36097-0.35232-0.55942-0.44647-0.55942-0.12353 0-0.23887-0.22818-0.19603-0.38781 0.03047-0.11353-0.0067-0.15104-0.23699-0.23932-0.90197-0.34576-2.7077-1.1956-3.0541-1.4374-0.17806-0.1243-0.41084-0.24044-0.51731-0.25809-0.10646-0.0177-0.25796-0.10138-0.33665-0.18605-0.0787-0.0847-0.17598-0.14679-0.21618-0.13806-0.0402 0.009-0.09458-0.0249-0.12084-0.0748s-0.0963-0.18137-0.15564-0.29217-0.10789-0.24127-0.10789-0.28993c0-0.0507-0.0483-0.0809-0.11316-0.0707-0.08495 0.0133-0.10894-0.0182-0.09623-0.12637 0.0093-0.0793-0.01271-0.17754-0.04894-0.21837-0.10353-0.11667-0.03535-0.47606 0.10346-0.5454 0.30134-0.15053 0.48105-0.29621 0.60208-0.48806 0.10504-0.1665 0.11196-0.20671 0.03559-0.20671-0.17633 0-0.09623-0.15429 0.21234-0.40899 0.43539-0.35939 1.0628-0.77696 1.2485-0.831 0.08686-0.0253 0.23067-0.093 0.31958-0.15048 0.08891-0.0575 0.36535-0.20035 0.6143-0.31746 0.24896-0.11711 0.69664-0.32898 0.99486-0.47082 0.61888-0.29435 0.75856-0.30877 2.9496-0.30458 1.4901 0.003 1.8123 0.0342 2.5219 0.24522 0.77442 0.23032 1.2101 0.28172 1.3218 0.15593 0.07337-0.0827 0.2867-0.0913 1.6767-0.0679 1.3563 0.0229 1.7126 0.009 2.4009-0.0908 0.44456-0.0647 0.92469-0.13141 1.067-0.14822 0.77899-0.092 1.3023-0.16439 1.6957-0.23451 0.24225-0.0432 0.66995-0.0848 0.95044-0.0924 0.28049-0.008 0.61462-0.0518 0.7425-0.0981 0.42938-0.15551 1.0186-0.26292 2.1401-0.3901 0.3023-0.0343 0.69164-0.0962 0.8652-0.13754l0.31556-0.0752 0.01937-0.51407c0.01065-0.28274 0.05052-0.59068 0.08859-0.68432 0.03807-0.0936 0.06922-0.24469 0.06922-0.33566 0-0.091 0.03126-0.19464 0.06947-0.23037 0.03821-0.0357 0.07908-0.12963 0.09084-0.20865 0.033-0.22183 0.22818-0.95954 0.33403-1.2625 0.05229-0.14968 0.10795-0.3538 0.12368-0.45359 0.01573-0.0998 0.04525-0.22226 0.06561-0.27215 0.02035-0.0499 0.04834-0.49895 0.0622-0.9979 0.03964-1.4273 0.04749-1.5451 0.10515-1.5784 0.02988-0.0173 0.05432-0.146 0.05432-0.28608 0-0.14007 0.0581-0.45078 0.12912-0.69045 0.11787-0.39782 0.23522-1.2417 0.2865-2.0601 0.02748-0.43859-0.03274-0.48141-0.65361-0.46477-0.92281 0.0247-1.5147 0.0808-1.6067 0.15221-0.04998 0.0388-0.12823 0.0586-0.17388 0.0439s-0.1703-0.003-0.277 0.0254c-0.1873 0.0502-0.28513 0.0619-1.194 0.14297-0.22994 0.0205-0.44311 0.0518-0.47372 0.0695s-0.30806 0.0396-0.61655 0.0487c-0.3085 0.009-0.88423 0.0595-1.2794 0.11196-0.39518 0.0525-1.0935 0.11028-1.5519 0.1284-2.263 0.0895-3.4892 0.17711-3.9696 0.28373-0.75668 0.16795-2.5381 0.10142-2.9745-0.11108-0.08891-0.0433-0.20012-0.0789-0.24714-0.0791-0.13788-0.0006-1.5041-0.75899-1.5527-0.86191-0.01186-0.0251-0.0509-0.0456-0.08677-0.0456s-0.15124-0.0612-0.25639-0.13608c-0.33958-0.24171-1.056-0.79389-1.1226-0.8652-0.03557-0.0381-0.18106-0.14804-0.32332-0.24428-0.14226-0.0962-0.2732-0.18876-0.29099-0.20559-0.1588-0.15021-0.96828-0.78656-1.0006-0.78656-0.02289 0-0.16353-0.1253-0.31255-0.27844-0.25155-0.25851-0.71287-0.62963-1.3571-1.0917-0.26124-0.18739-0.6886-0.81833-0.5777-0.8529 0.07504-0.0234 0.01745-0.37754-0.0614-0.37754-0.03378 0-0.0523-0.0878-0.04116-0.19503 0.01799-0.17321 0.05645-0.20752 0.34358-0.30661 0.17783-0.0614 0.38339-0.1641 0.45681-0.22831 0.07342-0.0642 0.16443-0.11675 0.20224-0.11675s0.10691-0.043 0.15356-0.0956c0.04946-0.0557 0.14709-0.0845 0.23424-0.0689 0.08218 0.0147 0.14943 0.003 0.14943-0.0269 0-0.10777 0.58478-0.23431 1.4873-0.32184 0.12448-0.0121 0.41546-0.0532 0.64664-0.0915 0.23117-0.0382 0.56581-0.0818 0.74363-0.0969 0.17782-0.015 0.43303-0.0675 0.56712-0.1165s0.33081-0.0892 0.43716-0.0892c0.2706 0 1.5889-0.26747 2.3906-0.485 0.38245-0.10378 0.79812-0.19753 1.2286-0.27709 0.18514-0.0342 0.63238-0.14422 0.77596-0.19086 0.05335-0.0173 0.14064-0.0377 0.19399-0.0453 0.05335-0.008 0.41708-0.10161 0.8083-0.20897s0.8277-0.21639 0.96996-0.24228c0.14226-0.0259 0.4769-0.1184 0.74363-0.20556 0.26674-0.0872 0.56015-0.15867 0.65202-0.1589 0.09188-0.00025 0.18778-0.0198 0.21313-0.0435 0.08865-0.0829 0.65604-0.2592 0.83442-0.25925 0.23861-0.00006 0.77678-0.25947 0.93937-0.45279 0.12924-0.15366 0.13116-0.15393 0.4313-0.0586 0.1834 0.0582 0.37846 0.0799 0.49802 0.0554 0.32516-0.0668 1.3686-0.39326 1.444-0.4518 0.03867-0.03 0.34133-0.15131 0.67258-0.26954 0.93323-0.33308 1.0911-0.43149 1.2647-0.78821 0.04854-0.0998 0.17794-0.26137 0.28755-0.35907s0.19929-0.2124 0.19929-0.2549c0-0.0991 0.16444-0.18048 0.47447-0.23488 0.13517-0.0237 0.27986-0.0942 0.32152-0.15656 0.04166-0.0624 0.12113-0.11345 0.17659-0.11345s0.13253-0.0296 0.17127-0.0659c0.03874-0.0362 0.22482-0.0759 0.41352-0.0881 0.21358-0.0138 0.41057-0.0688 0.52185-0.1458 0.09832-0.068 0.21777-0.12361 0.26544-0.12361s0.11432-0.0229 0.14811-0.0509 0.26512-0.11569 0.51408-0.1949c0.33886-0.10783 0.60268-0.14545 1.0495-0.14969 0.52433-0.005 0.68541 0.0217 1.3256 0.21912 0.449 0.13848 0.88081 0.31994 1.1249 0.47271 0.21788 0.13637 0.43692 0.24794 0.48677 0.24794 0.11089 0 0.31337 0.21195 0.31337 0.32802 0 0.0466 0.17459 0.19617 0.38798 0.3324 0.21339 0.13624 0.38798 0.23159 0.38798 0.21191 0-0.0197 0.10912 0.0427 0.24249 0.13853 0.35081 0.25218 0.58086 0.38015 0.68342 0.38015 0.04941 0 0.16832 0.068 0.26426 0.1512s0.21213 0.1512 0.2582 0.1512c0.07735 0 0.25219 0.11468 0.49154 0.32242 0.05335 0.0463 0.16974 0.11926 0.25866 0.16214 0.08891 0.0429 0.39893 0.22355 0.68893 0.40149s0.55772 0.32352 0.59493 0.32352 0.09092 0.0341 0.11936 0.0758c0.05981 0.0877 0.70983 0.46852 0.79964 0.46852 0.0332 0 0.06037 0.0353 0.06037 0.0784 0 0.0665 0.35054 0.25914 1.2772 0.70206 0.09774 0.0467 0.19225 0.1014 0.21004 0.12152 0.04879 0.0552 0.5736 0.36809 0.61743 0.36809 0.02103 0 0.15987 0.0776 0.30854 0.17247 0.14867 0.0949 0.30668 0.16063 0.35114 0.14616 0.04446-0.0145 0.08083 0.0168 0.08083 0.0694 0 0.0527 0.04365 0.0958 0.097 0.0958s0.09699 0.0212 0.09699 0.047c0 0.0792 0.3522 0.3938 0.72608 0.6485 0.19531 0.13306 0.4974 0.41861 0.67131 0.63456s0.42532 0.48577 0.55869 0.59959 0.24249 0.2323 0.24249 0.26329c0 0.031 0.05938 0.13433 0.13195 0.22965 0.07257 0.0953 0.18827 0.32642 0.2571 0.51354 0.12403 0.33717 0.12402 0.34231-0.002 0.57339-0.06995 0.12824-0.11092 0.27281-0.09104 0.32126 0.01988 0.0485 0.0051 0.10607-0.03293 0.12803-0.03799 0.022-0.06907 0.081-0.06907 0.13129 0 0.0503-0.08331 0.20514-0.18513 0.34419-0.10182 0.13904-0.20711 0.32085-0.23397 0.40401-0.02686 0.0832-0.09372 0.19899-0.14857 0.2574-0.05485 0.0584-0.08518 0.11981-0.0674 0.13644 0.01778 0.0166-0.07394 0.13472-0.20382 0.26241-0.12988 0.1277-0.28945 0.33723-0.35459 0.46563s-0.26475 0.35714-0.44357 0.50832c-0.81255 0.68696-1.3375 1.1786-1.3375 1.2526 0 0.0443-0.02807 0.0806-0.06238 0.0806s-0.22504 0.31979-0.42384 0.71063-0.38527 0.75234-0.41437 0.80333c-0.02911 0.051-0.07489 0.18706-0.10173 0.30239-0.02685 0.11533-0.08875 0.26337-0.13755 0.32899-0.0488 0.0656-0.08873 0.16803-0.08873 0.22761 0 0.0596-0.02835 0.15558-0.06299 0.21334-0.03464 0.0578-0.09013 0.26831-0.1233 0.46789s-0.12352 0.58059-0.20078 0.8467-0.1489 0.53826-0.1592 0.60479c-0.0103 0.0665-0.05428 0.2026-0.09773 0.30239-0.04345 0.0998-0.13761 0.35834-0.20924 0.57455-0.07164 0.21621-0.15229 0.42033-0.17923 0.45359-0.0599 0.074-0.13443 0.35109-0.17078 0.63503-0.0149 0.11642-0.05425 0.27971-0.08743 0.36287-0.03318 0.0832-0.0944 0.35531-0.13604 0.60479-0.04164 0.24947-0.08281 0.49441-0.09148 0.5443-0.0087 0.0499-0.03192 0.13154-0.05167 0.18144-0.04902 0.12385-0.20956 0.58897-0.29226 0.8467-0.03736 0.11642-0.10239 0.37497-0.14452 0.57455s-0.09954 0.39009-0.12758 0.42335c-0.02804 0.0333-0.08836 0.18295-0.13405 0.33263-0.04569 0.14969-0.13754 0.34643-0.20411 0.43722-0.15668 0.21366-0.50213 0.92624-0.50213 1.0358 0 0.0465-0.04399 0.11878-0.09775 0.16051-0.08742 0.0679-0.36796 0.5861-0.33594 0.62058 0.0071 0.008-0.0479 0.0955-0.12218 0.1953s-0.21944 0.33112-0.32257 0.51407c-0.10314 0.18295-0.2138 0.3503-0.24593 0.37189-0.03213 0.0216-0.04054 0.0828-0.01869 0.13608 0.02372 0.0578 0.0063 0.0968-0.04333 0.0968-0.04568 0-0.14525 0.10348-0.22125 0.22996-0.07601 0.12648-0.19776 0.28038-0.27056 0.34201-0.0728 0.0616-0.13287 0.14184-0.13349 0.17826-0.000646 0.0364-0.07784 0.13427-0.1716 0.21742-0.09377 0.0832-0.209 0.23729-0.25606 0.34251-0.04707 0.10523-0.17217 0.27999-0.27801 0.38837-0.10584 0.10837-0.17882 0.21763-0.1622 0.2428 0.01663 0.0252-0.03507 0.0651-0.1149 0.0888-0.07982 0.0237-0.22054 0.1141-0.31272 0.20091-0.09217 0.0868-0.29361 0.25308-0.44764 0.3695-0.4144 0.31321-0.65354 0.54796-0.61604 0.60471 0.01826 0.0276-0.06757 0.10847-0.19072 0.17966-0.23352 0.13498-0.81151 0.70094-0.81151 0.79462 0 0.0297-0.04365 0.0539-0.09699 0.0539-0.05335 0-0.097 0.0408-0.097 0.0907s-0.05171 0.0907-0.11492 0.0907c-0.11684 0-0.33007 0.16816-0.71125 0.5609-0.20314 0.2093-0.22577 0.21696-0.54964 0.18597-0.18578-0.0178-0.476-0.0307-0.64493-0.0287-0.22406 0.003-0.30715-0.0196-0.30715-0.0823 0-0.0472-0.12367-0.13709-0.27482-0.19967-0.15115-0.0626-0.41481-0.22714-0.58591-0.3657s-0.35628-0.25193-0.41151-0.25193-0.21222-0.0588-0.34885-0.13058c-0.18947-0.0996-0.26932-0.11437-0.33647-0.0622-0.1009 0.0783-1.2068 0.0395-1.2978-0.0456-0.03057-0.0286-0.13474-0.0308-0.23149-0.005-0.09674 0.026-0.344 0.0201-0.54946-0.013-0.24946-0.0402-0.41978-0.04-0.51269 0.00064-0.07652 0.0335-0.32239 0.10936-0.54637 0.16868-0.22398 0.0593-0.42212 0.13036-0.4403 0.15788-0.01818 0.0275-0.11699 0.05-0.21957 0.05s-0.22453 0.0476-0.271 0.10583c-0.04647 0.0582-0.17151 0.11186-0.27787 0.11922-0.10635 0.007-0.20335 0.0414-0.21555 0.0756s-0.08063 0.0622-0.15208 0.0622-0.20389 0.0544-0.29432 0.12095c-0.09043 0.0665-0.24064 0.12096-0.33381 0.12096s-0.3584 0.10815-0.58942 0.24034c-0.23102 0.13218-0.50248 0.27171-0.60325 0.31007-0.14326 0.0545-0.17504 0.0977-0.1457 0.19813 0.1306 0.44689 0.10656 0.93633-0.08501 1.7311-0.03608 0.14969-0.08243 0.66678-0.10299 1.1491s-0.06394 1.2035-0.09638 1.6027c-0.03245 0.39916-0.077 0.98429-0.09902 1.3003-0.02201 0.316-0.07875 0.69701-0.12609 0.8467-0.04734 0.14968-0.13116 0.46266-0.18626 0.6955-0.05511 0.23285-0.13742 0.57984-0.18293 0.77111-0.04551 0.19126-0.10522 0.34775-0.1327 0.34775s-0.05013 0.10206-0.05034 0.22679c-0.000194 0.12474-0.03036 0.39009-0.06702 0.58967-0.074 0.40296-0.11618 0.71875-0.14732 1.103-0.01142 0.14095-0.04053 0.27476-0.06469 0.29736-0.02415 0.0226-0.04392 0.24881-0.04392 0.50273 0 0.2539-0.02583 0.4875-0.0574 0.5191s-0.07658 0.37044-0.10001 0.75296c-0.02343 0.38253-0.05347 0.81798-0.06675 0.96766-0.04474 0.50443-0.10198 1.5363-0.13751 2.479l-0.0353 0.93679 0.17702-0.15057c0.2142-0.18219 0.3757-0.3115 0.49017-0.39248 0.57795-0.40882 0.85403-0.58746 1.0045-0.65 0.09911-0.0412 0.23828-0.12416 0.30928-0.1844 0.071-0.0602 0.27469-0.19388 0.45265-0.29697 0.58444-0.33859 1.9666-1.2132 2.0975-1.3272 0.07053-0.0615 0.15753-0.11174 0.19333-0.11174s0.09624-0.0544 0.13431-0.12096c0.03807-0.0665 0.10486-0.12096 0.14843-0.12096s0.15767-0.068 0.25356-0.1512c0.09589-0.0831 0.19744-0.15138 0.22566-0.1516 0.02823 0 0.28411-0.15188 0.56863-0.33701s0.8374-0.53949 1.2286-0.78746c0.39122-0.24796 0.88589-0.57304 1.0993-0.72239 0.21339-0.14935 0.43163-0.28913 0.48498-0.31063 0.12155-0.049 0.77171-0.52014 1.1325-0.82068 0.14974-0.12474 0.30372-0.22679 0.34218-0.22679s0.10796-0.05 0.15443-0.11107c0.04647-0.0611 0.24454-0.21731 0.44015-0.34716 0.19561-0.12984 0.55062-0.37601 0.78893-0.54704 0.38854-0.27887 1.6934-0.91894 2.8322-1.3892 0.41773-0.17252 1.3441-0.66367 1.7141-0.90879 0.24664-0.1634 0.88808-0.44637 1.0118-0.44637 0.05201 0 0.15105-0.04 0.22008-0.0888 0.06904-0.0488 0.21653-0.0897 0.32776-0.0907s0.24176-0.0465 0.29007-0.1009 0.20464-0.14616 0.3474-0.20381c0.60528-0.24446 1.1693-0.51018 1.2295-0.57922 0.19648-0.22541 0.69997-0.56862 0.76648-0.52248 0.04078 0.0283 0.1829 0.0586 0.3158 0.0673 0.19895 0.013 0.25376-0.009 0.31019-0.12482 0.06136-0.12593 0.1105-0.14023 0.46965-0.13665 0.22061 0.002 0.46798 0.0249 0.54971 0.0504 0.09189 0.0287 0.18502 0.0181 0.24405-0.0277 0.12196-0.0947 0.19986-0.0268 0.09931 0.0865-0.05944 0.067-0.05337 0.10704 0.02774 0.1829 0.05712 0.0534 0.12507 0.0971 0.15101 0.0971 0.09856 0 0.30743 0.52446 0.30107 0.75598-0.0098 0.35766-0.1752 0.55198-0.50496 0.59335-0.2006 0.0252-0.32407 0.0877-0.46678 0.23649-0.79362 0.82736-0.93766 0.98964-0.93766 1.0564 0 0.0415-0.15277 0.18171-0.33948 0.3115-0.3153 0.21917-0.70478 0.58522-0.85679 0.80524-0.35498 0.51379-0.43266 0.59551-0.56606 0.59551-0.18249 0-0.72324 0.34656-1.1413 0.73144-0.17725 0.16319-0.36278 0.2967-0.4123 0.2967-0.04951 0-0.1906 0.10206-0.31353 0.2268-0.12293 0.12473-0.30957 0.30018-0.41476 0.38988-0.24366 0.20777-0.5553 0.56026-0.66213 0.74891-0.04559 0.0805-0.11178 0.14638-0.14709 0.14638s-0.09091 0.0657-0.12356 0.14602c-0.03265 0.0803-0.11922 0.16379-0.19239 0.18551-0.07317 0.0217-0.13303 0.0593-0.13303 0.0836 0 0.0906-0.79702 1.0184-1.1516 1.3405-0.33459 0.30399-1.7152 1.6547-1.9147 1.8731-0.04556 0.0499-0.13812 0.13411-0.20571 0.18714-0.06758 0.053-0.16653 0.15856-0.21988 0.23451-0.05335 0.0759-0.22347 0.26322-0.37806 0.41619-0.15458 0.15295-0.38293 0.42164-0.50743 0.59707-0.1245 0.17544-0.25189 0.31897-0.28309 0.31897-0.03119 0-0.10116 0.0804-0.15547 0.17862-0.05432 0.0982-0.19397 0.26834-0.31034 0.37799-0.11637 0.10966-0.2537 0.27686-0.30517 0.37156s-0.17264 0.23439-0.26926 0.31044c-0.09662 0.076-0.2171 0.23097-0.26772 0.34429-0.05062 0.11331-0.13341 0.24577-0.18398 0.29435-0.17677 0.1698-0.37867 0.47065-0.37867 0.56423 0 0.0519-0.0582 0.1235-0.12933 0.15911-0.07113 0.0356-0.12933 0.0928-0.12933 0.12712 0 0.0343-0.07292 0.1518-0.16204 0.26109-0.08912 0.10928-0.25247 0.36794-0.36299 0.5748s-0.27039 0.44619-0.35526 0.53184c-0.08488 0.0857-0.15432 0.19125-0.15432 0.23465s-0.1849 0.25035-0.41088 0.45988-0.42999 0.42179-0.45336 0.47168c-0.02336 0.0499-0.1007 0.17237-0.17185 0.27216-0.07115 0.0998-0.14697 0.22906-0.16849 0.28727-0.02152 0.0582-0.07603 0.10584-0.12114 0.10584-0.09596 0-0.29088 0.25862-0.29088 0.38594 0 0.0483-0.02301 0.0969-0.05114 0.10797-0.09485 0.0374-0.7138 0.76935-0.75619 0.89426-0.02311 0.0681-0.0649 0.1238-0.09287 0.1238-0.07634 0-0.39307 0.28764-0.39307 0.35698 0 0.0332-0.03707 0.0821-0.08238 0.10872-0.04531 0.0266-0.13626 0.12746-0.20211 0.22414-0.06585 0.0967-0.1961 0.24807-0.28943 0.33641-0.3439 0.3255-0.84868 0.95769-0.84868 1.0629 0 0.0158-0.0873 0.14137-0.19399 0.27913-0.1067 0.13776-0.19399 0.28721-0.19399 0.33211s-0.04365 0.0816-0.097 0.0816-0.09699 0.0243-0.09699 0.0541-0.08324 0.13744-0.18498 0.2393-0.2208 0.26608-0.26458 0.36492c-0.04377 0.0988-0.11926 0.19395-0.16774 0.21135s-0.14826 0.14183-0.22172 0.2765c-0.07346 0.13468-0.16207 0.24486-0.19691 0.24486s-0.06335 0.039-0.06335 0.0866-0.09457 0.14833-0.21016 0.22376c-0.11559 0.0754-0.23235 0.17075-0.25947 0.2118-0.02713 0.041-0.20916 0.16016-0.40453 0.26471-0.19537 0.10454-0.38739 0.24631-0.42671 0.31503-0.10967 0.19166-0.42011 0.45515-0.71432 0.60628-0.4824 0.24781-0.53814 0.28197-0.63827 0.39111-0.05459 0.0595-0.14188 0.11689-0.19399 0.12753-0.05211 0.0106-0.18204 0.0947-0.28873 0.18685-0.1067 0.0921-0.29942 0.21234-0.42828 0.26713-0.15329 0.0652-0.26359 0.16785-0.31904 0.29698-0.04661 0.10854-0.15215 0.2623-0.23452 0.34168-0.08238 0.0794-0.14978 0.17567-0.14978 0.21399 0 0.21765-1.0826 0.82102-1.4731 0.82102-0.1358 0-0.27456 0.0234-0.30834 0.0521-0.03484 0.0295-0.24334 0.007-0.48174-0.0516zm69.255-1.0135c0-0.0289 0.0422-0.10531 0.09378-0.16989 0.09047-0.11325 0.09248-0.11257 0.05686 0.0196-0.03679 0.13651-0.15064 0.25008-0.15064 0.15026zm27.773-8.9131c-0.24895-0.0208-0.56904-0.0702-0.7113-0.10972-0.14226-0.0395-0.38188-0.0964-0.53248-0.12647-0.15061-0.03-0.33975-0.092-0.42032-0.13776-0.0806-0.0457-0.27015-0.11904-0.4213-0.16287-0.15115-0.0438-0.27482-0.11186-0.27482-0.15114 0-0.0393-0.1455-0.14549-0.32332-0.23601-0.17783-0.0905-0.32332-0.18704-0.32332-0.21448 0-0.066-0.87893-0.72878-0.96651-0.72878-0.0375 0-0.0681-0.0286-0.0681-0.0636s-0.0976-0.1017-0.21686-0.14831c-0.11928-0.0466-0.26251-0.1499-0.31829-0.22953-0.12168-0.17368-0.79739-0.48609-0.96351-0.44546-0.0704 0.0172-0.11793-0.004-0.11793-0.0515 0-0.0442-0.0971-0.11032-0.21566-0.14693-0.11861-0.0366-0.29864-0.14758-0.40007-0.24661-0.10144-0.099-0.24203-0.18004-0.31244-0.18004-0.0704 0-0.10825-0.0185-0.0841-0.0411 0.0241-0.0226-0.081-0.11103-0.23371-0.19655-0.38133-0.2136-0.69392-0.43997-0.69392-0.50251 0-0.0672-0.30657-0.3519-0.86627-0.80442-0.77707-0.62825-0.88101-0.72809-0.82002-0.78759 0.0713-0.0696-0.0473-0.75229-0.13072-0.75229-0.0585 0-0.0541-0.12488 0.006-0.18144 0.10479-0.098 0.32851-0.43885 0.41475-0.63189 0.0924-0.2069 0.11613-0.22163 0.29689-0.1845 0.15613 0.0321 0.22001 0.0131 0.31129-0.0923 0.11989-0.13847 0.52699-0.2984 0.76357-0.29996 0.0757-0.0006 0.1738 0.0399 0.21807 0.0898 0.0443 0.0499 0.13121 0.0907 0.19319 0.0907 0.062 0 0.18936 0.0564 0.28307 0.12534 0.0937 0.0689 0.17038 0.10432 0.17038 0.0786 0-0.0257 0.0349-0.0141 0.0776 0.0259 0.0427 0.0399 0.12517 0.0726 0.18331 0.0726 0.11236 0 0.84774 0.20903 1.0647 0.30263 0.12111 0.0523 0.56922 0.17163 1.1614 0.30939 0.14086 0.0328 0.28903 0.0851 0.32926 0.11637 0.0402 0.0312 0.0931 0.0381 0.11747 0.0153 0.0244-0.0228 0.1576-0.0352 0.29606-0.0276 0.15768 0.009 0.5738-0.0854 1.1137-0.25183 0.47407-0.14615 1.022-0.29987 1.2176-0.34161 0.19561-0.0417 0.42249-0.10004 0.50419-0.12955 0.0817-0.0295 0.23446-0.0537 0.33948-0.0537s0.19095-0.0269 0.19095-0.0598 0.0509-0.0533 0.11316-0.0454c0.16192 0.0206 1.5134-0.19602 1.6516-0.26473 0.0637-0.0317 0.13734-0.0451 0.16367-0.0299 0.0644 0.0372 1.315-0.20184 1.6281-0.31118 0.0534-0.0186 0.13592-0.0278 0.18351-0.0205 0.0476 0.007 0.23672-0.017 0.42031-0.0541s0.4793-0.081 0.65712-0.0975c0.17783-0.0165 0.36697-0.0457 0.42032-0.0649 0.0533-0.0192 0.22794-0.0419 0.38798-0.0506 0.72887-0.0394 1.266-0.10205 1.3224-0.15417 0.0338-0.0313 0.17655-0.0568 0.31726-0.0568 0.1407 0 0.88417-0.0943 1.6522-0.20944 1.4733-0.22098 2.0849-0.30701 2.6411-0.37155 0.18672-0.0217 0.33949-0.0611 0.33949-0.0876 0-0.0556 0.55078-0.0845 2.5865-0.13603 0.80022-0.0202 1.5859-0.0499 1.7459-0.066 0.16005-0.016 0.58198-0.0463 0.93763-0.0673 0.75116-0.0443 1.0025-0.0702 1.0425-0.1077 0.0158-0.0148-0.071-0.10885-0.19289-0.20897-0.12193-0.10013-0.2695-0.27627-0.32793-0.39143-0.11322-0.22315-0.77259-0.89411-0.87867-0.89411-0.0348 0-0.0633-0.039-0.0633-0.0866 0-0.0477-0.0586-0.10404-0.13026-0.12531-0.0716-0.0213-0.11481-0.0621-0.0959-0.0907 0.0189-0.0286-0.0183-0.0879-0.0827-0.13172-0.0644-0.0439-0.19594-0.23721-0.29235-0.42968-0.11754-0.23468-0.24564-0.38877-0.3889-0.46783-0.11749-0.0648-0.26112-0.21103-0.31916-0.32488-0.0581-0.11384-0.19458-0.25618-0.30341-0.31631-0.10884-0.0601-0.19788-0.1325-0.19788-0.16083 0-0.0283-0.0946-0.13991-0.21016-0.24797-0.93285-0.87208-0.98061-0.97124-0.941-1.9535l0.0279-0.69215-0.17582-0.11709c-0.0967-0.0644-0.19596-0.1171-0.22055-0.1171-0.0369 0-0.50692-0.17837-1.7459-0.66253-0.57566-0.22496-1.7921-0.76842-2.1662-0.96782-0.40898-0.21797-1.328-0.60736-1.4335-0.60736-0.0568 0-0.11776-0.0515-0.13537-0.11454-0.0186-0.0667-0.11356-0.13129-0.22716-0.15463-0.10733-0.022-0.2439-0.0905-0.30351-0.15208-0.11903-0.12302-0.29577-0.19409-0.7635-0.30701-0.16984-0.041-0.32433-0.098-0.3433-0.12674-0.019-0.0287-0.11554-0.0522-0.21463-0.0522-0.0991 0-0.22871-0.0502-0.28806-0.11152-0.0593-0.0613-0.26569-0.14454-0.45853-0.1849-0.49554-0.10373-1.0055-0.49379-1.0055-0.76908 0-0.10858 0.0291-0.21426 0.0648-0.23485 0.0399-0.0231 0.0487-0.19932 0.0229-0.45895-0.0387-0.38944-0.0301-0.43331 0.11306-0.57621 0.17975-0.17942 0.56068-0.34373 0.68962-0.29745 0.0978 0.0351 1.1719-0.27959 1.4524-0.4255 0.15696-0.0816 0.39988-0.16856 1.0521-0.37642 0.10669-0.034 0.36858-0.10227 0.58197-0.15172 0.21339-0.0494 0.64987-0.17616 0.96996-0.2816 0.79603-0.26221 1.3891-0.30402 1.8146-0.12792 0.30295 0.1254 0.9402 0.23757 1.5803 0.27818 0.41041 0.026 0.98598 0.14049 1.0614 0.21107 0.0964 0.0901 0.74913 0.0761 0.74913-0.016 0-0.0439 0.088-0.0777 0.21016-0.0806 0.35041-0.008 0.94476-0.0855 1.109-0.14388 0.0851-0.0303 0.16764-0.043 0.18332-0.0284 0.0253 0.0236 0.33999-0.0239 0.82542-0.12453 0.0889-0.0184 0.2926-0.0488 0.45264-0.0676 0.16004-0.0187 0.33464-0.0474 0.38798-0.0637 0.0534-0.0163 0.26203-0.0383 0.46373-0.0488s0.40539-0.0417 0.45264-0.0692c0.0473-0.0275 0.14678-0.0427 0.22115-0.0337 0.0744 0.009 0.49632-0.0422 0.93763-0.11365 0.44131-0.0715 0.88968-0.13793 0.99638-0.14764 0.10669-0.01 0.19399-0.0229 0.19399-0.0293 0-0.006 0.0582-0.019 0.12933-0.028 0.0711-0.009 0.34757-0.0458 0.6143-0.0818 0.26674-0.036 0.90691-0.1091 1.4226-0.16249 0.93313-0.0966 2.3766-0.25225 2.8862-0.3112 0.14703-0.017 0.40892-0.0418 0.58197-0.0551 0.17306-0.0133 0.44559-0.0369 0.60564-0.0525 0.16004-0.0156 0.69836-0.0569 1.1963-0.0919 0.49792-0.0349 1.2254-0.0894 1.6166-0.1211 0.39121-0.0317 1.0168-0.0729 1.3903-0.0916 1.9145-0.096 4.5726-0.35952 4.6848-0.46443 0.0217-0.0203 0.0394-0.46045 0.0394-0.97815 0-0.58156 0.025-0.94908 0.0655-0.96169 0.036-0.0112 0.094-0.21054 0.12885-0.44292 0.0349-0.23238 0.0779-0.46627 0.0957-0.51976 0.0543-0.16321-0.5183-0.1919-1.0145-0.0508-0.22604 0.0643-0.55465 0.13486-0.73023 0.15688-0.18689 0.0234-0.53539 0.1486-0.84062 0.30189-0.4003 0.20104-0.59176 0.26209-0.82434 0.26287-0.16662 0.00054-0.38486 0.0329-0.48498 0.0718-0.16952 0.0659-0.51361 0.11438-1.4753 0.20776-0.21339 0.0207-0.43265 0.0743-0.48724 0.11908-0.0675 0.0553-0.36856 0.0913-0.94013 0.11218-0.46248 0.0169-1.0434 0.0698-1.291 0.11748-0.54288 0.10456-1.5642 0.23824-1.7434 0.2282-0.0711-0.004-0.28937 0.0254-0.48498 0.0652-0.1956 0.0399-0.47204 0.0756-0.6143 0.0793-0.29597 0.008-1.6041 0.24531-1.7669 0.32076-0.0596 0.0276-0.25386 0.0568-0.43169 0.0649-0.17782 0.008-0.34938 0.0383-0.38124 0.0672-0.0856 0.0776-0.40776 0.006-0.85661-0.19045-0.21848-0.0956-0.45301-0.17381-0.52117-0.17381-0.0682 0-0.45511-0.20412-0.85986-0.45359-0.40475-0.24948-0.80408-0.45359-0.88741-0.45359-0.0833 0-0.29506-0.068-0.47052-0.1512s-0.35197-0.1512-0.39223-0.1512c-0.0403 0-0.1649-0.0392-0.27697-0.0871s-0.422-0.15472-0.68874-0.23733c-0.26674-0.0826-0.65901-0.23753-0.87173-0.34427-0.41518-0.20836-1.0385-0.42751-1.0869-0.38217-0.0163 0.0152-0.1332-0.0295-0.2598-0.0993-0.14838-0.0819-0.2446-0.18843-0.27075-0.2998-0.0223-0.095-0.0803-0.18702-0.12873-0.20442-0.0485-0.0174-0.13644-0.13534-0.19544-0.26209-0.059-0.12674-0.15354-0.3257-0.21009-0.44212-0.0566-0.11642-0.10789-0.23889-0.11408-0.27215-0.006-0.0333-0.0187-0.0741-0.0279-0.0907-0.009-0.0166-0.0236-0.13637-0.0321-0.26608-0.009-0.12971-0.059-0.26579-0.11204-0.30239-0.0545-0.0375-0.0868-0.13248-0.0741-0.21776 0.0123-0.0832 0.021-0.19202 0.0192-0.24191-0.008-0.22243-0.0601-0.89871-0.0865-1.1187-0.016-0.13297-0.01-0.25544 0.0136-0.27216 0.0234-0.0167 0.11535-0.16648 0.20426-0.3328 0.13466-0.25188 0.22107-0.32922 0.51731-0.46303 0.19561-0.0884 0.3908-0.19041 0.43376-0.2268 0.12966-0.10982 0.51794-0.0749 0.91808 0.0826 0.39884 0.15701 0.42422 0.1597 1.4934 0.15842 0.59936-0.00072 0.96563 0.0184 1.4698 0.0768 0.0793 0.009 0.16416 0.0354 0.1886 0.0582 0.12103 0.11319 2.9622-0.0377 3.1901-0.16938 0.0221-0.0128 0.30053-0.0412 0.61884-0.0632s0.59329-0.0483 0.61107-0.0585c0.0178-0.0102 0.19238-0.0368 0.38799-0.0592 1.0608-0.12131 2.0324-0.27833 2.0695-0.33442 0.0259-0.0392 0.0976-0.0447 0.18588-0.0141 0.0902 0.0312 0.44964-0.001 0.96489-0.0864 0.45166-0.0749 1.1122-0.17719 1.4678-0.22735 0.35565-0.0502 0.87943-0.13128 1.164-0.18028 0.79963-0.1377 2.4092-0.26477 3.5221-0.27805 0.15891-0.002 0.49355-0.0447 0.74363-0.095 0.2501-0.0504 0.55656-0.10332 0.68104-0.11768 0.12448-0.0144 0.34272-0.0478 0.48498-0.0743l0.25865-0.0481-0.0236-0.57309c-0.013-0.3152-0.041-0.60025-0.0622-0.63345-0.0213-0.0332-0.0445-0.16927-0.0517-0.30239-0.0337-0.62519-0.10428-1.0074-0.1918-1.0388-0.19303-0.0693-3.3188 0.18836-4.2692 0.35189-0.18188 0.0313-0.56016 0.0684-0.84062 0.0825-1.2273 0.0616-1.6943 0.10337-1.9972 0.1786-0.17783 0.0442-0.48336 0.10057-0.67897 0.12533-0.19561 0.0248-0.4284 0.0541-0.51731 0.0653-0.18916 0.0237-0.76751 0.13965-0.89963 0.18041-0.0948 0.0292-1.2026 0.0843-2.2689 0.11282-0.33787 0.009-0.84709 0.0602-1.1316 0.11373-0.28452 0.0535-0.69191 0.11304-0.9053 0.13227-1.0461 0.0943-1.6266 0.19681-1.9279 0.34056-0.14539 0.0694-0.42583 0.13928-0.62317 0.15534-0.19736 0.0161-0.43157 0.0659-0.52048 0.11067-0.20195 0.10178-1.0181 0.26862-1.3141 0.26862-0.12188 0-0.34764 0.0416-0.5017 0.0924s-0.38323 0.0885-0.50927 0.0837c-0.12604-0.005-0.3565 0.0352-0.51212 0.089s-0.35594 0.0978-0.44514 0.0978-0.26742 0.0291-0.39602 0.0647c-0.20191 0.0559-0.28457 0.0436-0.60564-0.09-0.21799-0.0907-0.37182-0.19286-0.37182-0.24697 0-0.0508-0.0291-0.13956-0.0646-0.19732-0.0356-0.0578-0.0905-0.17364-0.1221-0.2575-0.0316-0.0839-0.12619-0.18347-0.21019-0.22135-0.084-0.0379-0.28494-0.12546-0.44654-0.19463-0.1616-0.0692-0.58353-0.3204-0.93762-0.55829-0.35409-0.2379-0.75292-0.47365-0.88629-0.52389-0.13337-0.0502-0.24249-0.11368-0.24249-0.14097 0-0.0273-0.18083-0.13354-0.40184-0.23609-0.22102-0.10256-0.43198-0.20864-0.46881-0.23572-0.0368-0.0271-0.18337-0.0834-0.32563-0.12525-0.14226-0.0418-0.3023-0.10997-0.35565-0.15147-0.11469-0.0892-1.2519-0.56323-1.4101-0.58777-0.29131-0.0452-1.3001-0.6697-1.4896-0.92214-0.0757-0.10091-0.17864-0.23789-0.22868-0.30442-0.0726-0.0966-0.0788-0.21215-0.0303-0.57349 0.0449-0.33471 0.0401-0.48848-0.0184-0.59063-0.0646-0.11287-0.0579-0.20148 0.0364-0.48489 0.0635-0.19073 0.15252-0.38761 0.19782-0.4375 0.0453-0.0499 0.10201-0.15101 0.12601-0.2247 0.0308-0.0947 0.11371-0.14602 0.28247-0.17503 0.13136-0.0226 0.35523-0.11197 0.49749-0.19865 0.14226-0.0867 0.28776-0.16238 0.32332-0.16822 0.0356-0.006 0.19049-0.0609 0.34426-0.12224l0.2796-0.11163-0.13618-0.16192-0.13619-0.16193 0.24457-0.0456c0.13451-0.0251 0.25912-0.0436 0.2769-0.0412 0.0178 0.002 0.1269 0.0208 0.24249 0.041 0.16161 0.0282 0.21016 0.0155 0.21016-0.0547 0-0.0729 0.0264-0.0781 0.13066-0.0259 0.0719 0.036 0.161 0.0479 0.19807 0.0264 0.0371-0.0214 0.11807 0.004 0.18 0.0563 0.0637 0.0539 0.39214 0.13722 0.75573 0.19173 0.35371 0.053 0.70131 0.11946 0.77244 0.1476 0.0711 0.0281 0.32253 0.0974 0.55865 0.15399 0.46401 0.11111 0.53121 0.10532 1.6836-0.1452 0.50257-0.10925 0.82209-0.21081 1.4438-0.45889 0.1572-0.0627 0.40473-0.1298 0.67871-0.18393 0.0856-0.0169 0.36954-0.10416 0.48498-0.14901 0.41075-0.15959 1.1551-0.32746 2.0369-0.45935 0.55125-0.0825 1.0926-0.17703 1.2029-0.21016 0.18875-0.0567 1.0391-0.14243 2.0626-0.20802 0.24896-0.016 0.77273-0.0704 1.164-0.1209 0.39121-0.0505 1.0314-0.1206 1.4226-0.15568 0.39122-0.0351 0.88589-0.0903 1.0993-0.12261 0.21339-0.0323 0.43163-0.0607 0.48498-0.0631 0.0533-0.002 0.18429-0.0268 0.29099-0.0544 0.10669-0.0276 0.33221-0.0676 0.50114-0.089 0.17835-0.0225 0.30715-0.0702 0.30715-0.11358 0-0.0411-0.15392-0.20434-0.34204-0.36271-0.33161-0.27919-0.66782-0.42671-1.5655-0.68693-0.40526-0.11747-1.5196-0.62061-1.5196-0.68612 0-0.0268-0.062-0.0672-0.13778-0.0897-0.1914-0.0568-1.0908-0.63365-1.0908-0.69958 0-0.0296-0.0339-0.0539-0.0754-0.0539s-0.12149-0.0417-0.17782-0.0927c-1.4206-1.2858-1.8372-1.6922-2.0436-1.9938-0.55496-0.81079-0.71341-1.0309-0.78352-1.0886-0.12625-0.10387-1.038-1.3882-1.2072-1.7005-0.0886-0.16354-0.19436-0.41935-0.23502-0.56848-0.0406-0.14913-0.0978-0.32557-0.12692-0.3921-0.15879-0.36237-0.29886-0.94788-0.39786-1.6632-0.0391-0.28274-0.10872-0.5549-0.15464-0.60479-0.0459-0.0499-0.0993-0.15876-0.11855-0.24191-0.0769-0.33188-0.10474-0.42008-0.16662-0.52821-0.0355-0.062-0.11012-0.38354-0.16589-0.71455-0.18481-1.097-0.28393-1.455-0.4596-1.6602-0.0427-0.0499-0.0973-0.16808-0.12141-0.26263-0.0866-0.34042-0.68251-1.3793-0.92076-1.6053-0.0837-0.0794-0.15214-0.16879-0.15214-0.19868 0-0.0973 0.23421 0.0597 0.40917 0.27424 0.12435 0.15248 0.20594 0.20053 0.30103 0.17728 0.1553-0.038 0.1652-0.0969 0.0334-0.19923-0.1482-0.11504-0.11567-0.19888 0.0647-0.16664 0.1084 0.0194 0.16166 0.002 0.16166-0.0534 0-0.0453-0.0291-0.0823-0.0647-0.0823-0.10166 0-0.0755-0.16461 0.0323-0.20331 0.0534-0.0191 0.097-0.0734 0.097-0.12047 0-0.15853 0.28816-0.26869 0.74782-0.2859 0.24665-0.009 0.53861 0.003 0.64881 0.0271 0.13024 0.0285 0.36465 0.003 0.66992-0.0739 0.48212-0.12093 0.87438-0.12416 1.1959-0.01 0.10048 0.0357 0.19585 0.0527 0.21191 0.0377 0.0161-0.015 0.1357 0.008 0.26585 0.0506 0.24326 0.0801 0.63113 0.0613 0.6939-0.0337 0.0596-0.0901 0.15538-0.0593 0.11577 0.0372-0.0252 0.0614 0.003 0.0907 0.0882 0.0907 0.069 0 0.14731 0.0204 0.17401 0.0454 0.0267 0.0249 0.19886 0.0454 0.38259 0.0454 0.29502 0 0.33642 0.0156 0.35431 0.13317 0.0268 0.17625 0.37884 0.4588 0.82778 0.6644 0.19974 0.0915 0.37746 0.20118 0.39495 0.2438 0.0175 0.0426 0.0602 0.0775 0.0949 0.0775 0.10954 0 0.97849 0.37367 1.0717 0.46087 0.0491 0.0459 0.12981 0.0834 0.17944 0.0834 0.0496 0 0.18953 0.0929 0.31093 0.20642 0.12138 0.11353 0.39151 0.28862 0.60029 0.38908 0.20877 0.10046 0.52508 0.25235 0.7029 0.33753 0.33987 0.16279 0.3937 0.19432 1.1175 0.65453 0.2485 0.158 0.48427 0.28728 0.52395 0.28728 0.0397 0 0.0721 0.0386 0.0721 0.0858 0 0.0878 0.40423 0.35191 0.90529 0.59151 0.0889 0.0425 0.24896 0.15233 0.35565 0.24403 0.1067 0.0917 0.22935 0.16685 0.27255 0.16701 0.0432 0.00018 0.11286 0.0615 0.1548 0.13636 0.0821 0.14661 0.43782 0.46871 0.51757 0.46871 0.0268 0 0.0692 0.0612 0.0943 0.13607 0.0589 0.17537 0.47701 0.52341 0.63276 0.52667 0.077 0.002 0.10736 0.0335 0.0846 0.0889-0.0217 0.053 0.12687 0.23824 0.3843 0.47901 0.31558 0.29517 0.42919 0.447 0.45779 0.61186 0.0272 0.15649 0.0877 0.2433 0.21164 0.30322 0.0955 0.0462 0.21347 0.1289 0.26222 0.18384 0.0487 0.0549 0.19714 0.14048 0.32978 0.19012 0.27138 0.10155 0.3134 0.16611 0.38724 0.59492 0.10589 0.61491 0.14458 0.73119 0.32557 0.97855 0.10173 0.13905 0.18497 0.28193 0.18497 0.31752 0 0.0356 0.0258 0.0647 0.0573 0.0647 0.0629 0 0.14206 0.30838 0.13853 0.53953-0.001 0.0805 0.0359 0.203 0.0824 0.27215 0.0466 0.0691 0.12104 0.24284 0.16547 0.38597 0.0444 0.14313 0.1182 0.27366 0.16393 0.29007 0.0823 0.0295 0.0955 0.67596 0.0163 0.79587-0.0191 0.0289-0.0416 0.18695-0.0498 0.35113-0.008 0.16417-0.0338 0.3121-0.0567 0.32873-0.0229 0.0166-0.0736 0.27518-0.11267 0.57455-0.0391 0.29937-0.0864 0.61235-0.10515 0.69551-0.0188 0.0832-0.0635 0.30937-0.0995 0.50269-0.0359 0.19332-0.0943 0.43826-0.12981 0.54431-0.36118 1.0796-0.36919 1.0341 0.17219 0.97859 0.61286-0.0629 0.95421-0.0924 1.4388-0.12429 0.23117-0.0152 0.78404-0.0813 1.2286-0.1467 2.0736-0.30532 2.6851-0.38086 3.6507-0.45107 0.33753-0.0245 0.55442-0.0712 0.63047-0.13553 0.0834-0.0706 0.11594-0.0763 0.11594-0.0202 0 0.062 0.2144 0.0697 1.0508 0.0377 2.7696-0.1059 2.7188-0.0985 2.7963-0.40968 0.0275-0.11071 0.0463-0.22148 0.0416-0.24615-0.005-0.0247 0.0404-0.0982 0.10007-0.16342 0.0597-0.0652 0.11786-0.17574 0.12926-0.24563 0.0114-0.0699 0.0649-0.20699 0.11893-0.30466 0.054-0.0977 0.0976-0.19147 0.0969-0.20845-0.00071-0.017 0.004-0.0513 0.0107-0.0762 0.007-0.0249 0.0142-0.24948 0.0167-0.49895 0.005-0.47705 0.0716-0.65449 0.48855-1.3003 0.10737-0.16631 0.2129-0.35002 0.23449-0.40823 0.0216-0.0582 0.065-0.10584 0.0964-0.10584s0.0571-0.0403 0.0571-0.0895 0.11702-0.23292 0.26005-0.40823c0.14303-0.1753 0.27788-0.38678 0.29967-0.46993 0.0218-0.0832 0.0767-0.19202 0.12191-0.24192 0.0453-0.0499 0.11532-0.21319 0.15568-0.36287 0.0403-0.14969 0.10066-0.32659 0.13401-0.39311 0.13316-0.26567 0.21617-0.49124 0.23364-0.63497 0.0166-0.13665 0.14117-0.49875 0.28085-0.81652 0.0292-0.0665 0.10196-0.28425 0.16158-0.48383 0.0596-0.19958 0.13179-0.4173 0.16039-0.48383 0.0286-0.0665 0.10259-0.24343 0.16446-0.39311 0.0619-0.14969 0.13697-0.32659 0.1669-0.39311 0.0299-0.0665 0.10187-0.27065 0.15984-0.45359 0.058-0.18295 0.15896-0.4415 0.22439-0.57455 0.0654-0.13306 0.1355-0.3916 0.15569-0.57455 0.0521-0.47234 0.10789-1.0686 0.13289-1.4212 0.0118-0.16632 0.0706-0.60176 0.13061-0.96766 0.15822-0.96424 0.15794-0.95812 0.0496-1.0718-0.0643-0.0676-0.0861-0.16548-0.0619-0.27846 0.0206-0.0963 0.005-0.2047-0.0355-0.24233-0.0539-0.0505-0.0509-0.10628 0.0116-0.2156 0.0557-0.0973 0.0697-0.23942 0.0412-0.41732-0.0363-0.22618-0.0943-0.31006-0.35921-0.51896-0.17378-0.13705-0.36651-0.24918-0.4283-0.24918-0.0618 0-0.0933-0.0178-0.0701-0.0395 0.0567-0.053-0.3411-0.32336-0.47587-0.32336-0.0587 0-0.15941-0.0544-0.22379-0.12096-0.0644-0.0665-0.14556-0.12096-0.18043-0.12096-0.14251 0-0.36921-0.31357-0.36921-0.51071 0-0.12635-0.0374-0.21551-0.0998-0.2379-0.0797-0.0286-0.0853-0.0611-0.0277-0.16172 0.0565-0.0988 0.0491-0.1587-0.0346-0.27817-0.0973-0.13881-0.0977-0.16157-0.005-0.25774 0.0562-0.058 0.10208-0.18758 0.10208-0.28791 0-0.27991 0.19578-0.40566 0.64858-0.41657 0.21056-0.005 0.42854-0.0447 0.48438-0.088 0.0558-0.0434 0.2054-0.0752 0.33233-0.0707 0.12693 0.005 0.28295-0.018 0.34673-0.0499 0.1258-0.063 0.63244-0.1346 0.92384-0.13061 0.0999 0.001 0.30359-0.0378 0.45264-0.0872 0.40719-0.13469 1.2007-0.17671 1.5046-0.0797 0.13955 0.0446 0.27367 0.076 0.29805 0.0699 0.2423-0.0607 0.84066-0.051 0.97838 0.0159 0.12784 0.062 0.2672 0.0672 0.60626 0.0224 0.24214-0.032 0.48391-0.0577 0.53726-0.0571 0.0533 0.0006 0.25001 0.003 0.43703 0.005 0.18701 0.002 0.45399-0.0277 0.59328-0.0667 0.14794-0.0415 0.30233-0.05 0.37127-0.0205 0.0649 0.0278 0.24017 0.0532 0.38946 0.0564 0.14929 0.003 0.32388 0.0487 0.38798 0.10081 0.0641 0.0522 0.18987 0.11104 0.27949 0.13085 0.17692 0.0391 0.34654 0.17022 0.54753 0.42324 0.0707 0.089 0.17878 0.16177 0.24022 0.16177 0.0614 0 0.14285 0.0544 0.18092 0.12096 0.0406 0.0709 0.13539 0.12095 0.22923 0.12095 0.088 0 0.20985 0.0544 0.27075 0.12096 0.0609 0.0665 0.14654 0.12096 0.19032 0.12096 0.16532 0 0.40898 0.14432 0.40898 0.24225 0 0.056 0.0582 0.15113 0.12933 0.21134 0.0711 0.0602 0.12933 0.091 0.12933 0.0685s0.0655-0.002 0.14549 0.0466c0.11661 0.0702 0.62068 0.19678 0.67608 0.16972 0.0207-0.0101 0.41207 0.30388 0.58022 0.46553 0.0833 0.0801 0.16927 0.12886 0.19109 0.10846 0.0218-0.0204 0.13065 0.0243 0.24184 0.0994 0.1112 0.0751 0.28809 0.17597 0.3931 0.22418 0.10501 0.0482 0.3378 0.22642 0.51731 0.39604s0.42246 0.35475 0.53987 0.4114c0.11742 0.0566 0.22965 0.14239 0.24941 0.19055 0.0198 0.0482 0.0765 0.0876 0.126 0.0876s0.0901 0.0272 0.0901 0.0605 0.0332 0.0605 0.0738 0.0605 0.15725 0.0816 0.25921 0.18144c0.10197 0.0998 0.23994 0.18143 0.30662 0.18143 0.0668 0 0.13639 0.0543 0.15504 0.12096 0.0199 0.0713 0.0882 0.12096 0.16626 0.12096 0.32422 0 1.0598 0.97675 1.2191 1.6187 0.0187 0.0753 0.0596 0.15178 0.0909 0.16988s0.0569 0.12817 0.0569 0.24459c0 0.12095-0.0268 0.19618-0.0626 0.17552-0.0344-0.0199-0.0999 0.0212-0.14549 0.0914-0.0456 0.0701-0.19934 0.18179-0.3416 0.24809-0.3987 0.18579-0.54473 0.26852-0.70712 0.40057-0.0823 0.0669-0.28175 0.1941-0.44323 0.28261-0.16149 0.0885-0.32716 0.19874-0.36817 0.24495-0.0921 0.10376-0.55599 0.33385-0.67315 0.33385-0.0474 0-0.19186 0.0786-0.32111 0.17467-0.12925 0.0961-0.34422 0.19377-0.4777 0.21712-0.16491 0.0288-0.35785 0.14249-0.60192 0.35452-0.61857 0.53739-0.91942 0.76566-1.0091 0.76566-0.0477 0-0.0866 0.0402-0.0866 0.0893s-0.0731 0.13411-0.16241 0.18885c-0.0893 0.0547-0.17979 0.16424-0.20101 0.24331-0.0212 0.0791-0.078 0.14378-0.12629 0.14378-0.0482 0-0.1224 0.0612-0.1648 0.13608-0.0424 0.0748-0.13072 0.18009-0.19627 0.23389-0.0655 0.0538-0.11917 0.12863-0.11917 0.16631 0 0.0377-0.0263 0.0685-0.0584 0.0685s-0.15581 0.0791-0.27482 0.17571c-0.40451 0.32847-1.0457 0.79195-1.0956 0.79195-0.0273 0-0.0696 0.0612-0.0939 0.13608-0.0468 0.14385-0.52683 0.56841-0.92394 0.81708-0.13026 0.0816-0.34704 0.25428-0.48172 0.3838-0.13469 0.12952-0.27095 0.23549-0.3028 0.23549-0.0319 0-0.0765 0.0549-0.0993 0.12197-0.0228 0.0671-0.15184 0.17467-0.28684 0.23909-0.23009 0.10978-1.0384 0.8687-1.0384 0.97493 0 0.0267-0.16732 0.20651-0.37181 0.39969-0.44341 0.41886-0.78553 0.78221-0.92965 0.98735-0.0579 0.0823-0.25426 0.29913-0.43648 0.48176-0.18221 0.18263-0.3313 0.36633-0.3313 0.40823 0 0.0822 0.14312 0.1036 0.21896 0.0327 0.0256-0.0239 0.13955-0.0491 0.25326-0.0559 0.45262-0.0272 1.2007-0.13052 1.2809-0.17687 0.0467-0.027 0.23155-0.0552 0.41071-0.0626 1.0474-0.0434 1.6931-0.0867 1.7794-0.11925 0.054-0.0204 0.22922-0.0489 0.38926-0.0633s0.42193-0.0408 0.58197-0.0587c0.16005-0.0179 0.42193-0.0304 0.58198-0.0278 0.16004 0.003 0.42193-0.0238 0.58197-0.0586s0.52378-0.0752 0.8083-0.0898 0.76465-0.0441 1.067-0.0656c0.3023-0.0215 0.62239-0.0375 0.7113-0.0355 0.32457 0.007 1.7145 0.21027 1.7459 0.25527 0.0178 0.0255 0.16327 0.0557 0.32332 0.0672 0.16004 0.0115 0.30553 0.0353 0.32331 0.0528 0.0372 0.0367 0.89415 0.21963 1.6578 0.35384 0.18267 0.0321 0.46741 0.10133 0.63273 0.15383 0.16533 0.0525 0.37335 0.0954 0.46226 0.0954 0.17131 0 0.40477 0.12232 0.66786 0.34993 0.0879 0.076 0.19653 0.12508 0.2414 0.10897 0.12772-0.0458 0.88636 0.1166 0.9146 0.19583 0.0139 0.0391 0.0592 0.0717 0.10074 0.0724 0.0415 0.00079 0.16105 0.10965 0.26567 0.24191 0.10463 0.13227 0.21375 0.24049 0.24249 0.24049 0.0288 0 0.0523 0.0522 0.0523 0.11592 0 0.0637 0.0337 0.12642 0.0749 0.13927 0.0412 0.0128 0.0849 0.09 0.0971 0.17135 0.0122 0.0814 0.0987 0.20244 0.19219 0.26896 0.0935 0.0665 0.35537 0.28652 0.5819 0.48887 0.47061 0.42038 0.4228 0.20169 0.42856 1.9605 0.003 0.9791-0.10024 1.8748-0.21653 1.8748-0.0323 0-0.0588 0.0301-0.0588 0.0669 0 0.27333-0.76073 1.3241-0.95862 1.3241-0.0294 0-0.124 0.0713-0.21023 0.15843-0.30364 0.30688-0.62261 0.44727-1.1772 0.51812-0.29232 0.0374-0.59696 0.0666-0.67698 0.065-0.08-0.002-0.14549 0.0154-0.14549 0.0378 0 0.0225-0.1789 0.0471-0.39755 0.0548-0.48261 0.017-0.78383 0.0633-0.8294 0.12742-0.0654 0.092-0.55984 0.13215-1.6506 0.1339-0.6046 0.00097-1.2182 0.0262-1.3636 0.056-0.14538 0.0298-0.49143 0.0695-0.769 0.0882-0.27758 0.0187-0.53059 0.0489-0.56226 0.0672-0.0317 0.0183-0.61677 0.0448-1.3002 0.0589-0.68346 0.0141-1.49 0.0397-1.7923 0.0569-1.4078 0.0802-1.6618 0.0969-1.8429 0.12152-0.7039 0.0957-2.2845 0.15457-2.3292 0.0868-0.0447-0.0676-0.73116-0.0638-0.77617 0.004-0.0211 0.032-0.1182 0.0582-0.21568 0.0582-0.0975 0-0.20903 0.0297-0.24789 0.0661-0.0511 0.0478-0.11027 0.0463-0.21373-0.005-0.0813-0.0407-0.23579-0.0554-0.3576-0.034-0.26819 0.0471-2.9743 0.0588-3.0532 0.0132-0.0557-0.0322-0.18298-0.0489-1.0105-0.13283-0.2088-0.0212-0.49444-0.0764-0.63473-0.12265-0.1403-0.0463-0.44171-0.10206-0.6698-0.12392-0.50416-0.0483-0.53702-0.006-0.38852 0.50097 0.31098 1.0616 0.36613 1.3367 0.34557 1.7242-0.0204 0.38488-0.0142 0.40513 0.13321 0.43148 0.085 0.0152 0.43482-0.009 0.77728-0.0533 0.34245-0.0445 0.68085-0.0724 0.75198-0.0618 0.0711 0.0105 0.20207-0.008 0.29098-0.0413 0.0889-0.0333 0.2314-0.0567 0.31662-0.0521 0.0852 0.005 0.18708-0.014 0.22632-0.0414 0.0393-0.0274 0.15866-0.0547 0.26536-0.0607 0.49748-0.0279 1.92-0.26063 2.4275-0.39719 0.19419-0.0523 0.49855-0.11017 0.67638-0.1287 0.17782-0.0185 0.40334-0.0879 0.50114-0.1541 0.10369-0.0702 0.17782-0.0912 0.17782-0.0504 0 0.075 0.51513 0.0267 0.58004-0.0544 0.0188-0.0236 0.15066-0.0805 0.29292-0.12646 0.23173-0.0749 0.52609-0.19526 1.3579-0.55521 0.39893-0.17262 0.92189-0.25674 1.3215-0.21258 0.72912 0.0806 0.84686 0.10116 1.5916 0.27828 0.41781 0.0994 0.82635 0.18067 0.90788 0.18067 0.0815 0 0.16621 0.0272 0.18819 0.0605 0.022 0.0333 0.0981 0.0605 0.1691 0.0605s0.29689 0.0778 0.50191 0.17298c0.20503 0.0951 0.55985 0.23353 0.78851 0.30754 0.22865 0.074 0.44483 0.15631 0.48039 0.18291 0.0356 0.0266 0.16119 0.0677 0.27918 0.0913 0.11798 0.0236 0.29257 0.081 0.38798 0.12756 0.0954 0.0465 0.21024 0.0848 0.25518 0.085 0.0449 0.00019 0.13223 0.0242 0.19399 0.0533 0.4706 0.22175 0.68523 0.30997 0.7541 0.30997 0.044 0 0.1173 0.0653 0.16294 0.14502 0.0456 0.0798 0.16123 0.15965 0.25686 0.17754 0.28526 0.0534 1.1046 0.86091 1.1046 1.0887 0 0.0515 0.0291 0.11039 0.0647 0.13095 0.0356 0.0206 0.0647 0.26549 0.0647 0.54431 0 0.27881-0.0291 0.52375-0.0647 0.5443-0.0356 0.0206-0.0647 0.10381-0.0647 0.18501s-0.0291 0.14763-0.0647 0.14763-0.0647 0.0368-0.0647 0.0817-0.19983 0.27656-0.44407 0.51471c-0.4034 0.39333-0.45337 0.47033-0.54559 0.84058-0.0558 0.22418-0.12141 0.55728-0.14573 0.74023-0.0243 0.18294-0.0729 0.34963-0.10793 0.37042-0.035 0.0208-0.0706 0.1195-0.079 0.21937-0.0244 0.29002-0.26897 0.59753-0.59131 0.74347-0.24543 0.11112-0.3562 0.12587-0.6927 0.0922-0.2203-0.022-0.48784-0.0456-0.59454-0.0524-0.10669-0.007-0.22329-0.0303-0.25912-0.0522-0.0866-0.053-1.6756-0.18779-2.3274-0.19742-0.28452-0.004-0.6919 0.0114-0.90529 0.0347-0.41926 0.0458-1.5356 0.12382-1.7459 0.12202-0.0711-0.00061-0.63856 0.052-1.261 0.11689-0.62238 0.0649-1.2109 0.12607-1.3079 0.13595-0.0969 0.01-0.18423-0.00063-0.19399-0.0234-0.01-0.0227-0.20688-0.0155-0.43806 0.016-0.23117 0.0315-0.58035 0.0671-0.77596 0.0791s-0.4284 0.0349-0.51731 0.051c-0.0889 0.0161-0.3799 0.0627-0.64664 0.10352-0.26673 0.0409-0.53978 0.10008-0.60675 0.1316-0.067 0.0315-0.32887 0.0917-0.58197 0.13368-0.25312 0.042-0.77791 0.13798-1.1662 0.21327-0.57489 0.11147-0.76105 0.12544-1.0023 0.0752-0.35901-0.0747-0.846-0.0182-0.91457 0.10609-0.0275 0.0499-0.10006 0.25401-0.16124 0.45359-0.0612 0.19958-0.13088 0.39008-0.15494 0.42335-0.0759 0.10502-0.0799 0.50093-0.006 0.6296 0.052 0.0908 0.0505 0.15389-0.006 0.23793-0.1038 0.15545-0.0273 0.3119 0.15219 0.31134 0.0811-0.00024 0.39486-0.03 0.69716-0.066 0.30231-0.036 0.69514-0.073 0.87296-0.0821 0.17783-0.009 0.48336-0.0325 0.67897-0.0519 0.31629-0.0314 1.317-0.10034 1.9399-0.13367 1.5925-0.0852 2.4163-0.17682 2.5676-0.28548 0.0429-0.0308 0.11016-0.0375 0.14946-0.0147 0.0393 0.0227 0.42614-0.003 0.85962-0.0572 0.75658-0.0946 0.89839-0.11338 1.4025-0.18588 0.12447-0.0179 0.31362-0.0581 0.42031-0.0893 0.1067-0.0312 0.54318-0.0998 0.96996-0.15235 0.42678-0.0526 0.81961-0.11239 0.87296-0.13288 0.0533-0.0205 0.12191-0.032 0.15236-0.0255 0.10249 0.0217 1.1079-0.13282 1.1758-0.18076 0.037-0.0261 0.29817-0.0648 0.58039-0.086 0.28221-0.0212 0.55748-0.0599 0.6117-0.0861 0.14652-0.0707 1.0768-0.13888 2.1234-0.15562 0.92539-0.0148 0.9257-0.0148 1.4051-0.23939 0.4023-0.18844 0.5604-0.22834 0.98198-0.24784 0.27636-0.0128 0.73526-0.036 1.0198-0.0515 0.42998-0.0235 0.64285 0.002 1.261 0.15201 0.40899 0.0992 0.80183 0.2047 0.87296 0.23453 0.0711 0.0298 0.20207 0.0685 0.29098 0.0858 0.2164 0.0423 1.0296 0.31557 1.0805 0.36312 0.0222 0.0208 0.0937 0.0378 0.15893 0.0378 0.0652 0 0.11855 0.0211 0.11855 0.0469s0.29826 0.16649 0.6628 0.31268c0.36454 0.14618 0.70874 0.30198 0.76489 0.34622 0.0562 0.0442 0.15072 0.0804 0.21016 0.0804 0.0594 0 0.10807 0.0272 0.10807 0.0605s0.0558 0.0605 0.12394 0.0605c0.0682 0 0.13363 0.0213 0.14549 0.0473 0.0328 0.0721 0.50132 0.31552 0.60723 0.31552 0.0513 0 0.0933 0.0258 0.0933 0.0574 0 0.048 0.38221 0.23401 1.0023 0.48785 0.0711 0.0291 0.26465 0.1083 0.43003 0.17596 0.16538 0.0677 0.42727 0.2456 0.58197 0.39542 0.1547 0.14981 0.31314 0.27284 0.35208 0.27339 0.10692 0.001 0.29623 0.21963 0.27297 0.31451-0.025 0.10181 0.21328 0.66036 0.4338 1.017 0.1011 0.16353 0.11666 0.44176 0.0355 0.63503-0.0522 0.12436 0.0362 0.4559 0.1386 0.51963 0.0876 0.0545 0.22781 0.68326 0.18051 0.80938-0.0229 0.0611-0.0212 0.23613 0.004 0.38894 0.0327 0.19926 0.0179 0.32826-0.0524 0.45609-0.1 0.18193-0.58378 0.63822-0.67671 0.63822-0.0283 0-0.0514 0.0511-0.0514 0.1136 0 0.10162-0.61527 0.61214-0.73775 0.61214-0.0258 0-0.14784 0.072-0.27129 0.16011-0.21599 0.15409-0.25499 0.15997-1.0356 0.15637-0.44611-0.002-0.82815-0.0197-0.84897-0.0392-0.0208-0.0195-0.10125-0.0354-0.17872-0.0354-0.0775 0-0.19353-0.0544-0.2579-0.12095-0.0644-0.0665-0.15617-0.12096-0.20401-0.12096-0.0478 0-0.0879-0.034-0.089-0.0756-0.001-0.0416-0.0729-0.12383-0.15957-0.18278-0.14012-0.0953-0.27912-0.10427-1.2573-0.0808-0.85902 0.0206-1.1462 0.0486-1.3115 0.12764-0.32516 0.15543-0.75348 0.26662-1.1912 0.30921-0.52914 0.0515-0.59205 0.0913-0.45458 0.28754 0.0592 0.0845 0.16172 0.20249 0.22781 0.26219 0.0661 0.0597 0.15389 0.23745 0.19511 0.395 0.11294 0.43169 0.95776 1.522 1.2816 1.654 0.1832 0.0747 0.49257 0.67348 0.49178 0.95188-0.00071 0.25828-0.21308 0.47417-0.67158 0.6828-0.22766 0.10359-0.55943 0.31033-0.73725 0.45943-0.17783 0.14909-0.35254 0.28206-0.38825 0.29548-0.17725 0.0666-1.1984 0.74307-1.4467 0.95836-0.15565 0.13496-0.30396 0.24538-0.32959 0.24538-0.0256 0-0.11652 0.0576-0.20199 0.12793-0.0855 0.0704-0.22086 0.16874-0.30088 0.21863-0.31574 0.19683-0.10236 0.30379 0.53348 0.2674 0.0711-0.004 0.7695-0.02 1.5519-0.0354 3.6697-0.0723 4.6305-0.0971 5.1408-0.13314 0.55118-0.0389 0.97308-0.0557 2.7159-0.10803 0.5157-0.0155 1.0686-0.0434 1.2286-0.0621 0.16005-0.0187 0.56743-0.0438 0.9053-0.0559 0.33786-0.0121 0.80344-0.0645 1.0346-0.11643 0.23117-0.052 0.52651-0.11069 0.6563-0.13053 0.1298-0.0198 0.27002-0.0744 0.31162-0.1213s0.16819-0.10261 0.28132-0.12386c0.11313-0.0213 0.30317-0.08 0.42231-0.13055 0.11914-0.0506 0.50426-0.13186 0.8558-0.18066 0.58018-0.0806 0.67658-0.0795 1.0443 0.0116 0.22283 0.0552 0.44879 0.10502 0.50214 0.11072 0.0533 0.006 0.15519 0.0404 0.22632 0.077 0.0711 0.0367 0.36212 0.13035 0.64664 0.20821 0.28452 0.0779 0.70645 0.22645 0.93762 0.3302s0.55842 0.24087 0.72723 0.30472c0.1688 0.0639 0.30702 0.13385 0.30715 0.15557 0 0.0344 0.55664 0.37378 1.6076 0.9806 0.16515 0.0954 0.39585 0.25185 0.51268 0.34775 0.11682 0.0959 0.25359 0.17437 0.30393 0.17437 0.0504 0 0.11481 0.0375 0.14325 0.0834 0.0284 0.0459 0.16539 0.13999 0.30433 0.20913 0.24559 0.12221 0.41041 0.25666 0.87899 0.71703 0.12448 0.12229 0.46639 0.44293 0.7598 0.71253s0.53348 0.53291 0.53348 0.58514c0 0.0522 0.0727 0.14605 0.16166 0.2085 0.0889 0.0624 0.16166 0.15546 0.16166 0.20669 0 0.0512 0.0436 0.15142 0.097 0.22264 0.0533 0.0712 0.0808 0.16903 0.0609 0.21734-0.0198 0.0483 0.009 0.13 0.0642 0.18153 0.0764 0.0714 0.0901 0.16265 0.0576 0.38398-0.0234 0.15965-0.0741 0.32394-0.11263 0.36509-0.0386 0.0411-0.31015 0.31279-0.60356 0.60365-0.29342 0.29085-0.53348 0.55057-0.53348 0.57714 0 0.0266-0.0322 0.0483-0.0715 0.0483-0.11823 0-0.33383 0.29943-0.60839 0.84496-0.52594 1.045-0.85287 1.4508-1.3645 1.6936-0.25072 0.11898-0.30889 0.12257-1.0023 0.062-0.40486-0.0354-1.0126-0.10463-1.3504-0.15394-0.33787-0.0493-0.818-0.11905-1.067-0.15499-0.24896-0.0359-0.65634-0.10564-0.90529-0.15487-0.24896-0.0493-0.62724-0.11172-0.84063-0.13883-0.21339-0.0271-0.66442-0.1084-1.0023-0.18063-0.6091-0.13021-1.5392-0.28682-2.0369-0.34298-0.14226-0.016-0.3605-0.0534-0.48498-0.0831-0.42029-0.10011-1.3225-0.2049-1.8429-0.21406-0.4516-0.008-1.2701-0.0584-1.781-0.10981-0.0904-0.009-0.19954-0.0369-0.24249-0.0617-0.0429-0.0248-0.0781-0.022-0.0781 0.006 0 0.0554-0.83199 0.0461-1.0257-0.0114-0.0645-0.0192-1.0022-0.0487-2.0838-0.0656-4.371-0.0683-4.6714-0.0828-4.4484-0.2149 0.0971-0.0575-0.0518-0.0764-0.44411-0.0563-0.11558 0.006-0.21016-0.0185-0.21016-0.0543s-0.0308-0.0651-0.0685-0.0651-0.0505 0.0272-0.0285 0.0605c0.0439 0.0664 0.0647 0.0647-1.1963 0.0987-2.0748 0.0561-4.7133 0.0659-5.0114 0.0187-0.17783-0.0282-0.74709-0.0651-1.265-0.0821-0.51794-0.017-1.0097-0.0544-1.0927-0.0831-0.0831-0.0287-0.29948-0.0297-0.4809-0.002-0.18143 0.0275-1.2465 0.0466-2.3668 0.0423-1.1941-0.005-2.2108 0.0191-2.4572 0.0573-0.23117 0.0358-0.8568 0.0804-1.3903 0.099-1.4904 0.0521-1.7661 0.088-2.185 0.28458-0.20591 0.0966-0.39965 0.1611-0.43052 0.14326-0.0309-0.0178-0.33694-0.005-0.68013 0.0281-0.34319 0.0333-1.5898 0.0747-2.7703 0.0921-2.4051 0.0353-3.5584 0.0717-4.3983 0.13871-0.31388 0.025-0.58621 0.022-0.60519-0.007-0.019-0.0287-0.11136-0.033-0.20528-0.009-0.0939 0.0235-0.21442 0.0407-0.26777 0.0382-0.0534-0.003-0.38798 0.0225-0.74363 0.0555-0.35565 0.0331-0.95218 0.0711-1.3256 0.0845-0.37343 0.0134-0.9554 0.0667-1.2933 0.11831-0.33787 0.0517-0.7307 0.10688-0.87296 0.12274-0.14226 0.0159-0.3896 0.0587-0.54964 0.0952-0.16005 0.0365-0.65472 0.12029-1.0993 0.18621-0.44456 0.0659-0.98288 0.14693-1.1963 0.18-0.21339 0.0331-0.47528 0.0734-0.58198 0.0897-0.26003 0.0396-2.519 0.27374-2.8452 0.29492-0.14226 0.009-0.4478 0.0462-0.67897 0.0822-0.92305 0.14357-1.9555 0.21624-4.0415 0.28447-0.74686 0.0244-1.3725 0.0627-1.3903 0.0851-0.0625 0.0787-0.61911 0.16103-1.067 0.15778-0.24895-0.002-0.46888 0.0172-0.48873 0.0423-0.0487 0.0615-0.62588 0.14979-1.2572 0.19229-0.52892 0.0356-1.2882 0.11041-2.0369 0.20067-0.23118 0.0279-0.69618 0.0459-1.0334 0.04-0.55556-0.01-0.68428 0.0113-1.3732 0.22443-0.4181 0.12934-0.88571 0.23515-1.0391 0.23515-0.15342 0-0.30659 0.0243-0.34037 0.054-0.0727 0.064-0.96118 0.26277-1.6457 0.36822-0.72149 0.11114-1.0771 0.23152-1.2763 0.43208-0.22752 0.22907-0.89065 0.65762-1.0176 0.65762-0.0532 0-0.24326 0.0843-0.42231 0.18735-0.17905 0.10304-0.44865 0.20197-0.59911 0.21984-0.15046 0.0179-0.30386 0.0547-0.34089 0.0817-0.037 0.0271-0.29892 0.0411-0.58197 0.0312-0.60131-0.0211-0.94261 0.0247-3.135 0.42024-0.26755 0.0483-0.57847 0.0878-0.69092 0.0878-0.11247 0-0.27191 0.024-0.35432 0.0533-0.0824 0.0293-0.36803 0.0704-0.63468 0.0913-0.26666 0.0209-0.64488 0.0568-0.84049 0.0798-0.38844 0.0456-0.62087 0.0439-0.97457-0.007-0.15221-0.0221-0.30652 0.002-0.45265 0.0714-0.17619 0.0833-0.31462 0.0971-0.67435 0.067zm69.158-6.3693c0-0.0638-0.1241-0.0906-0.16101-0.0348-0.0223 0.0338 0.005 0.0615 0.0602 0.0615 0.0554 0 0.10081-0.012 0.10081-0.0267zm-36.794-4.4318c0.12448-0.0206 0.48821-0.0429 0.80829-0.0495 0.32009-0.007 0.59653-0.0156 0.61431-0.0201 0.0178-0.004 0.32611-0.0208 0.68517-0.0362s0.73196-0.0561 0.82867-0.0905c0.0967-0.0344 0.31216-0.0629 0.47878-0.0635 0.36817-0.001 0.46203-0.0505 0.40051-0.21075-0.0255-0.0665-0.0242-0.19375 0.003-0.28272 0.0271-0.089 0.0333-0.17676 0.0137-0.1951-0.0196-0.0183-0.006-0.068 0.0302-0.11038 0.0746-0.0874 0.0697-0.28147-0.0102-0.4024-0.0309-0.0467-0.0252-0.0978 0.0133-0.12003 0.0369-0.0213 0.0884-0.14754 0.11461-0.28052 0.0262-0.13297 0.0755-0.25872 0.10961-0.27944 0.0394-0.0239 0.0386-0.0791-0.002-0.1512-0.0353-0.0624-0.0689-0.236-0.0748-0.38568-0.006-0.14968-0.0123-0.31298-0.0144-0.36287-0.007-0.18053-0.20019-0.8467-0.24509-0.8467-0.0253 0-0.0477-0.034-0.0497-0.0756s-0.0359-0.55187-0.0754-1.134c-0.11889-1.7546-0.1474-2.0562-0.22574-2.3889-0.0235-0.0998-0.0545-0.26911-0.0688-0.37627-0.0563-0.42071-0.0881-0.45541-0.38184-0.41741-0.14764 0.0191-0.87951 0.0639-1.6264 0.0996-0.83759 0.04-1.5809 0.10935-1.9399 0.18102-0.88745 0.17717-2.5665 0.46579-2.7482 0.47241-0.0889 0.003-0.24895 0.0192-0.35565 0.0354-0.10669 0.0162-0.5268 0.0587-0.93358 0.0943s-0.74856 0.0731-0.75953 0.0834c-0.011 0.0102-0.048 0.34307-0.0823 0.7396-0.0766 0.88498-0.0224 1.139 0.37054 1.7385 0.40735 0.62135 0.84317 1.4795 0.78095 1.5377-0.0444 0.0415-0.0378 0.10771 0.0205 0.2046 0.18078 0.30055 0.45267 0.59185 0.58993 0.63204 0.0786 0.023 0.31465 0.17569 0.52463 0.3393 0.20999 0.16361 0.46413 0.31288 0.56476 0.3317 0.10063 0.0188 0.16862 0.0559 0.15109 0.0825-0.0175 0.0265 0.0723 0.0804 0.19957 0.11968 0.12729 0.0393 0.24894 0.11633 0.27032 0.17119 0.0612 0.15705 0.38361 0.42513 0.56151 0.46689 0.089 0.0209 0.17798 0.0854 0.19765 0.14337 0.0197 0.058 0.10503 0.16625 0.1897 0.24064 0.13608 0.11957 0.14656 0.16024 0.0904 0.35057-0.0486 0.16478-0.0433 0.22732 0.0228 0.26653 0.083 0.0492 0.48314 0.0279 0.9593-0.051zm13.252-1.6519c0.22917-0.0337 0.49982-0.10004 0.60145-0.14746 0.10164-0.0474 0.22891-0.0704 0.28283-0.051 0.0539 0.0194 0.16156 0.006 0.23918-0.0296 0.1377-0.0632 0.40473-0.11092 0.90596-0.16193 0.13613-0.0138 0.64536-0.0704 1.1316-0.12577 0.48625-0.0553 1.1896-0.1082 1.5631-0.11751 0.37344-0.009 0.80992-0.0509 0.96996-0.0924s0.41592-0.0852 0.56862-0.097 0.36341-0.063 0.46826-0.11374c0.11789-0.057 0.25633-0.0768 0.36286-0.0518 0.1514 0.0355 0.16799 0.0252 0.13704-0.0855-0.023-0.0823 0.0009-0.13894 0.069-0.16336 0.089-0.0319 0.0906-0.0453 0.0107-0.0914-0.0787-0.0455-0.0725-0.076 0.0396-0.1933 0.20052-0.20988 0.48938-0.70792 0.44742-0.77142-0.0203-0.0308 0.002-0.078 0.049-0.10499 0.10213-0.0583 0.27804-0.44026 0.25238-0.54803-0.01-0.0416 0.0115-0.0756 0.0475-0.0756s0.16098-0.14447 0.27766-0.32104c0.11667-0.17658 0.24872-0.37389 0.29344-0.43847 0.0447-0.0646 0.11635-0.18547 0.15919-0.26863 0.0428-0.0832 0.20194-0.32019 0.35356-0.52675 0.37258-0.50756 1.033-1.6848 1.1124-1.9831 0.0354-0.13306 0.0945-0.35078 0.13124-0.48383 0.0816-0.29556 0.0876-0.69669 0.012-0.80822-0.0438-0.0647-0.15872-0.0724-0.53248-0.0358-0.26215 0.0256-0.57847 0.0388-0.70295 0.0292-0.12448-0.01-0.26997-0.0166-0.32332-0.0155-0.0533 0.001-1.2027 0.0172-2.5542 0.0359s-2.821 0.0487-3.2655 0.0667c-0.44456 0.018-1.1884 0.0469-1.653 0.0641-0.46459 0.0172-0.91561 0.0456-1.0023 0.0631-0.0867 0.0175-0.47768 0.0548-0.8689 0.083-0.97184 0.0699-0.96136 0.0643-0.90143 0.48102 0.0788 0.54804 0.0944 0.68379 0.1184 1.0345 0.0125 0.18295 0.0561 0.41044 0.0968 0.50553 0.0407 0.0951 0.0782 0.34004 0.0834 0.54431 0.005 0.20427 0.0417 0.46666 0.0812 0.58308s0.0616 0.29332 0.049 0.39311c-0.0126 0.0998-0.0332 0.57606-0.0458 1.0584-0.0126 0.48232-0.0389 0.95859-0.0586 1.0584-0.0196 0.0998 0.004 0.31995 0.0519 0.48925 0.052 0.18278 0.0785 0.51093 0.0653 0.80786-0.0266 0.59697 0.039 0.75742 0.28768 0.70406 0.0947-0.0203 0.3596-0.0645 0.58877-0.0982zm-53.895 9.7375c-0.0533-0.0807 0.0561-0.20362 0.15257-0.17147 0.0408 0.0136 0.033 0.0635-0.0205 0.13138-0.0597 0.0757-0.10039 0.0881-0.13211 0.0401z" style="fill: rgb(0, 255, 255);"/>
  </g>
</svg>